<svg width="1920" height="734" viewBox="0 0 1920 734" fill="none" xmlns="http://www.w3.org/2000/svg">
<rect width="1920" height="733.78" transform="translate(0 0.219727)" fill="#043873"/>
<g opacity="0.3">
<path d="M720.952 710.402C713.662 710.402 706.567 709.83 699.748 708.689C685.447 706.293 672.234 701.374 660.477 694.068C647.84 686.218 636.757 675.521 627.532 662.276C608.992 635.654 599.717 603.771 590.746 572.938C588.983 566.883 587.161 560.623 585.311 554.549C572.688 513.148 556.687 476.882 536.396 443.681C495.918 377.45 438.993 320.927 371.771 280.222C294.031 233.15 210.447 209.701 136.415 214.197C92.9028 216.841 35.411 241.981 9.71648 284.915C-5.53212 310.396 -6.76171 338.673 6.16309 366.686L5.90644 366.804C-0.870402 352.113 -3.82311 337.385 -2.86707 323.03C-1.99 309.861 2.16128 296.988 9.47395 284.769C21.1043 265.334 40.2842 248.109 64.9409 234.954C87.7249 222.8 113.101 215.327 136.398 213.912C175.141 211.562 216.347 216.779 258.869 229.424C297.415 240.887 335.451 257.895 371.918 279.977C439.179 320.704 496.138 377.258 536.638 443.529C556.94 476.753 572.95 513.038 585.582 554.461C587.435 560.535 589.257 566.799 591.016 572.853C599.979 603.664 609.249 635.524 627.763 662.107C645.668 687.819 669.905 703.395 699.796 708.401C741.19 715.335 791.456 700.833 834.255 669.605C895.932 624.604 938.736 559.103 980.134 495.762C987.39 484.659 994.892 473.178 1002.32 462.093C1021.6 433.305 1047.72 396.003 1078.76 362.77C1110.49 328.802 1142.73 303.846 1177.32 286.471C1198.5 275.836 1220.94 268.671 1244.03 265.176C1265.35 261.946 1287.92 261.746 1311.11 264.576C1350.89 269.432 1393.75 283.151 1442.13 306.512C1537.39 352.516 1632.56 408.354 1724.97 472.479C1812.81 533.428 1898.96 602.396 1981.03 677.46L1980.84 677.669C1810.72 522.063 1629.43 397.274 1442.01 306.766C1336.11 255.632 1252.05 249.262 1177.45 286.722C1101.56 324.831 1048.54 393.604 1002.55 462.248C995.128 473.331 987.627 484.811 980.371 495.914C938.962 559.278 896.144 624.799 834.424 669.83C814.48 684.383 792.043 695.734 769.541 702.654C757.654 706.31 745.838 708.7 734.416 709.76C729.864 710.191 725.372 710.402 720.952 710.402Z" fill="#A1A1A1"/>
<path d="M728.08 694.615C709.489 694.615 692.269 691.078 676.88 684.096C659.719 676.311 644.91 664.247 632.862 648.242C631.796 646.824 630.739 645.359 629.718 643.882C611.376 617.375 601.688 585.907 592.323 555.473C590.428 549.323 588.47 542.961 586.485 536.788C574.66 500.032 560.421 467.637 542.95 437.756C540.798 434.078 538.57 430.391 536.323 426.8C495.25 361.139 437.862 305.331 370.365 265.41C292.063 219.141 208.242 196.662 134.343 202.116C91.1463 205.338 33.9196 230.89 8.1151 273.494C-7.33657 299.006 -9.08505 327.34 3.05292 355.434L2.79345 355.546C-3.56883 340.822 -6.18309 326.066 -4.97324 311.693C-3.8621 298.493 0.458363 285.592 7.87257 273.348C19.6214 253.947 38.7449 236.702 63.1703 223.479C85.7457 211.257 111.011 203.571 134.317 201.835C173.013 198.979 214.263 203.698 256.921 215.858C295.56 226.873 333.776 243.464 370.506 265.168C438.043 305.111 495.461 360.953 536.56 426.651C538.807 430.245 541.038 433.934 543.19 437.615C560.672 467.516 574.919 499.928 586.75 536.704C588.738 542.877 590.695 549.238 592.591 555.392C601.953 585.805 611.632 617.251 629.949 643.721C630.967 645.192 632.025 646.658 633.088 648.073C657.984 681.156 692.193 694.615 728.167 694.615C728.364 694.615 728.559 694.615 728.756 694.615C728.531 694.612 728.305 694.615 728.08 694.615ZM735.753 694.418C769.197 692.701 803.708 679.857 833.314 660.749C897.176 619.362 943.075 555.44 987.464 493.623C989.291 491.075 991.119 488.532 992.946 485.99C996.959 480.409 1001.72 473.802 1006.57 467.141C1028.36 437.272 1054.72 402.517 1085.09 371.235C1117.4 337.949 1149.67 313.249 1183.76 295.72C1204.71 284.961 1226.84 277.381 1249.55 273.193C1270.59 269.311 1292.83 268.215 1315.64 269.931C1355.04 272.899 1397.4 284.152 1445.15 304.334C1491.71 323.98 1529.98 342.473 1565.59 362.534C1616.04 390.98 1664.09 423.756 1704.44 452.064C1798.26 518.066 1890.31 593.013 1978.04 674.822L1977.84 675.028C1890.13 593.23 1798.09 518.289 1704.28 452.295C1663.93 423.99 1615.89 391.22 1565.45 362.782C1529.85 342.727 1491.59 324.239 1445.05 304.598C1341.02 260.633 1258.04 257.89 1183.89 295.973C1106.93 335.542 1052.13 405.161 1006.8 467.31C1001.94 473.971 997.188 480.575 993.175 486.159C991.347 488.699 989.52 491.244 987.692 493.792C943.289 555.628 897.374 619.573 833.466 660.991C817.62 671.217 800.758 679.341 783.346 685.133C767.139 690.52 751.163 693.634 735.753 694.418Z" fill="#A1A1A1"/>
<path d="M735.938 679.189C733.701 679.189 731.479 679.141 729.274 679.042C710.7 678.222 693.511 673.963 678.187 666.378C661.426 658.083 646.905 645.796 635.03 629.856C633.975 628.436 632.923 626.967 631.908 625.49C613.771 599.113 603.681 568.065 593.926 538.043C591.892 531.786 589.789 525.314 587.657 519.034C575.248 482.402 560.634 450.266 542.974 420.788C540.788 417.144 538.526 413.488 536.245 409.925C494.577 344.836 436.727 289.745 368.953 250.607C290.093 205.142 206.035 183.629 132.266 190.042C90.7302 193.709 33.6699 217.803 6.54 262.034C-9.13445 287.588 -11.416 315.998 -0.0591836 344.19L-0.321439 344.295C-6.27198 329.525 -8.54223 314.735 -7.07574 300.337C-5.72771 287.095 -1.22672 274.16 6.30029 261.887C18.1732 242.531 37.2346 225.281 61.4259 211.997C83.7898 199.716 108.94 191.82 132.24 189.763C170.89 186.406 212.186 190.622 254.976 202.297C293.711 212.868 332.105 229.038 369.094 250.365C436.908 289.528 494.789 344.65 536.482 409.776C538.763 413.341 541.028 416.997 543.214 420.647C560.882 450.142 575.504 482.298 587.919 518.949C590.051 525.232 592.155 531.704 594.188 537.961C603.94 567.966 614.022 598.992 632.136 625.338C633.151 626.815 634.198 628.281 635.252 629.696C683.508 694.464 769.027 687.51 832.37 651.89C898.898 614.151 948.338 551.426 996.151 490.768L996.642 490.145C1001.27 484.265 1006.06 478.188 1010.83 472.187C1061.12 408.879 1116.4 343.818 1190.2 304.963C1210.92 294.077 1232.75 286.083 1255.08 281.204C1275.85 276.666 1297.75 274.673 1320.17 275.282C1359.25 276.342 1401.13 285.13 1448.18 302.15C1497.64 319.972 1534.85 336.354 1568.85 355.271C1617.29 382.277 1664.22 416.402 1705.62 446.512C1797.8 513.909 1888.44 589.834 1975.05 672.171L1974.85 672.373C1888.26 590.045 1797.62 514.129 1705.45 446.737C1664.06 416.634 1617.14 382.513 1568.71 355.516C1534.73 336.605 1497.52 320.229 1448.09 302.412C1346.08 265.521 1264.18 266.409 1190.33 305.208C1116.57 344.038 1061.32 409.071 1011.05 472.356C1006.28 478.357 1001.49 484.437 996.862 490.314L996.371 490.937C972.544 521.165 947.907 552.421 921.301 580.34C891.402 611.715 862.357 635.198 832.506 652.13C801.275 669.69 767.256 679.189 735.938 679.189Z" fill="#A1A1A1"/>
<path d="M1971.87 669.715C1886.4 586.857 1797.16 509.966 1706.63 441.179C1702.8 438.287 1698.96 435.38 1695.1 432.466C1655.89 402.808 1615.34 372.14 1571.99 348.249C1529.92 325.136 1487.3 311.003 1451.14 300.227C1351.34 270.298 1270.52 274.817 1196.78 314.442C1121.09 355.239 1062.43 422.975 1015.3 477.404C1012.48 480.671 1009.65 483.944 1006.82 487.219C1004.74 489.638 1002.65 492.056 1000.56 494.472C973.725 525.494 949.316 553.23 922.347 578.539C891.537 607.45 861.84 628.624 831.555 643.273C803.172 657.003 772.853 664.267 744.651 664.27C739.513 664.27 734.451 664.03 729.476 663.542C711.314 661.764 694.5 656.766 679.503 648.688C663.137 639.874 648.904 627.353 637.192 611.473C636.146 610.049 635.102 608.578 634.093 607.098C616.17 580.859 605.688 550.248 595.552 520.646C593.369 514.27 591.11 507.674 588.826 501.273C575.825 464.757 560.833 432.877 542.999 403.811C540.779 400.195 538.481 396.573 536.168 393.041C493.902 328.524 435.593 274.149 367.545 235.792C288.127 191.13 203.835 170.59 130.195 177.952C79.8521 183.085 28.3729 212.924 5.00504 250.511C-10.9148 276.119 -13.7378 304.619 -3.16499 332.929L-3.43006 333.028C-8.96604 318.205 -10.8951 303.37 -9.16347 288.935C-7.57008 275.645 -2.88297 262.668 4.7653 250.362C16.7623 231.062 35.7617 213.812 59.7105 200.479C81.86 188.147 106.881 180.046 130.167 177.673C168.772 173.812 210.11 177.529 253.033 188.72C291.86 198.844 330.437 214.598 367.686 235.544C435.776 273.923 494.117 328.329 536.408 392.886C538.723 396.421 541.022 400.045 543.241 403.662C561.087 432.745 576.085 464.641 589.094 501.174C591.378 507.578 593.637 514.171 595.82 520.55C605.95 550.135 616.427 580.726 634.327 606.935C635.336 608.412 636.377 609.88 637.42 611.301C687.797 679.609 773.42 671.077 831.433 643.017C900.648 609.536 953.614 548.309 1000.35 494.285C1002.44 491.867 1004.52 489.449 1006.61 487.033C1009.44 483.758 1012.26 480.485 1015.09 477.218C1041.99 446.151 1068.56 415.96 1097.77 388.139C1131.35 356.144 1163.7 331.957 1196.65 314.194C1217.16 303.175 1238.68 294.767 1260.62 289.206C1281.13 284.005 1302.69 281.119 1324.71 280.623C1363.54 279.749 1404.93 286.074 1451.23 299.956C1487.39 310.738 1530.04 324.876 1572.13 348.004C1615.5 371.904 1656.06 402.579 1695.28 432.243C1699.13 435.158 1702.97 438.064 1706.81 440.956C1797.34 509.749 1886.59 586.648 1972.07 669.515L1971.87 669.715Z" fill="#A1A1A1"/>
<path d="M1968.88 667.06C1882.92 582.088 1795.09 504.219 1707.81 435.62C1702.59 431.516 1697.24 427.285 1692.08 423.195C1655.07 393.903 1616.81 363.614 1575.26 340.983C1533.76 318.464 1490.77 306.637 1454.19 298.04C1356.82 274.935 1277.07 283.081 1203.23 323.676C1132.79 362.537 1077.61 420.974 1024.24 477.486L1018.38 483.69C1013.76 488.592 1008.97 493.657 1004.25 498.626C950.832 554.814 897.357 607.476 830.601 634.411C814.402 640.948 797.768 645.477 781.157 647.882C763.32 650.461 745.993 650.497 729.656 647.989C711.911 645.263 695.478 639.538 680.813 630.972C664.854 621.651 650.906 608.902 639.36 593.084C638.319 591.652 637.284 590.177 636.283 588.7C618.581 562.616 607.72 532.456 597.218 503.288C594.875 496.78 592.449 490.049 590.001 483.513C576.397 447.109 561.033 415.486 543.029 386.837C540.778 383.257 538.446 379.663 536.097 376.16C493.236 312.215 434.467 258.556 366.14 220.98C286.16 177.126 201.632 157.553 128.118 165.871C78.2354 171.636 26.9903 201.683 3.50399 238.943C-12.6809 264.616 -16.0623 293.225 -6.27631 321.68L-6.54424 321.773C-11.6657 306.885 -13.2477 291.994 -11.2482 277.517C-9.40386 264.17 -4.52218 251.142 3.26146 238.797C15.3881 219.562 34.3199 202.328 58.0149 188.956C79.9444 176.579 104.83 168.284 128.085 165.595C166.645 161.232 208.025 164.448 251.083 175.153C290.007 184.833 328.762 200.166 366.272 220.734C434.639 258.33 493.442 312.023 536.328 376.005C538.677 379.511 541.012 383.108 543.263 386.688C561.278 415.351 576.651 446.991 590.261 483.414C592.709 489.95 595.134 496.684 597.478 503.193C607.974 532.344 618.829 562.489 636.511 588.543C637.51 590.014 638.545 591.485 639.583 592.917C688.746 660.275 770.435 658.384 830.491 634.152C897.193 607.239 950.646 554.597 1004.04 498.435C1008.76 493.465 1013.55 488.4 1018.18 483.498L1024.04 477.294C1050.23 449.556 1077.32 420.87 1106.73 394.185C1140.05 363.963 1171.57 340.819 1203.09 323.428C1223.38 312.271 1244.6 303.449 1266.14 297.208C1286.4 291.34 1307.63 287.557 1329.24 285.964C1367.9 283.115 1408.79 286.976 1454.25 297.764C1490.85 306.366 1533.86 318.196 1575.39 340.734C1616.97 363.374 1655.24 393.672 1692.25 422.973C1697.42 427.063 1702.76 431.291 1707.98 435.397C1795.27 504.002 1883.11 581.876 1969.07 666.857L1968.88 667.06Z" fill="#A1A1A1"/>
<path d="M1965.89 664.405C1880.67 578.488 1794.24 499.644 1708.98 430.064C1702.58 424.836 1696.01 419.398 1689.66 414.141C1654.65 385.165 1618.45 355.203 1578.52 333.721C1537.22 311.589 1494.03 302.16 1457.24 295.858C1362.57 279.394 1283.9 291.17 1209.67 332.915C1144.89 369.499 1091.71 421.346 1040.27 471.485C1034.86 476.761 1029.26 482.216 1023.81 487.501C1017.4 493.707 1012.51 498.423 1007.94 502.786C983.49 526.142 954.375 553.035 923.821 575.404C891.443 599.107 860.638 615.512 829.645 625.557C813.347 630.84 796.784 634.171 780.413 635.457C762.835 636.838 745.815 635.823 729.831 632.438C712.512 628.771 696.463 622.319 682.122 613.262C666.572 603.442 652.914 590.465 641.526 574.697C640.499 573.268 639.47 571.791 638.472 570.308C621.004 544.399 609.779 514.704 598.922 485.987C596.403 479.327 593.8 472.44 591.175 465.752C576.958 429.45 561.219 398.086 543.054 369.863C540.77 366.314 538.404 362.754 536.021 359.278C492.565 295.906 433.333 242.962 364.73 206.167C284.195 163.12 199.429 144.52 126.046 153.787C84.2904 159.177 29.7542 184.004 2.04325 227.316C-14.4321 253.067 -18.386 281.807 -9.38687 310.425L-9.6548 310.509C-14.3616 295.545 -15.5912 280.589 -13.3125 266.056C-11.2087 252.642 -6.12396 239.557 1.80634 227.164C14.0628 208.008 32.924 190.802 56.3567 177.402C78.0663 164.989 102.802 156.505 126.012 153.508C164.527 148.643 205.952 151.358 249.14 161.578C288.157 170.812 327.092 185.729 364.863 205.919C433.505 242.734 492.771 295.708 536.252 359.118C538.635 362.593 541.004 366.159 543.288 369.71C561.462 397.948 577.209 429.329 591.434 465.647C594.063 472.339 596.666 479.225 599.184 485.886C610.033 514.588 621.255 544.266 638.703 570.148C639.701 571.627 640.728 573.102 641.754 574.528C682.655 631.167 752.863 650.142 829.557 625.284C899.012 602.774 955.669 552.322 1007.75 502.578C1012.32 498.215 1017.21 493.499 1023.61 487.292C1029.06 482.007 1034.66 476.553 1040.07 471.276C1065.4 446.593 1091.58 421.07 1119.51 397.17C1151.09 370.142 1180.54 349.041 1209.54 332.664C1229.64 321.361 1250.54 312.125 1271.68 305.213C1291.7 298.665 1312.59 293.989 1333.77 291.309C1372.34 286.432 1412.74 287.827 1457.29 295.573C1494.1 301.881 1537.32 311.313 1578.65 333.465C1618.61 354.96 1654.82 384.931 1689.84 413.916C1696.19 419.173 1702.76 424.61 1709.16 429.839C1794.42 499.427 1880.86 578.277 1966.09 664.199L1965.89 664.405Z" fill="#A1A1A1"/>
<path d="M1962.89 661.75C1878.42 574.883 1793.39 495.061 1710.16 424.506C1703.08 418.505 1695.81 412.205 1688.77 406.114C1655.27 377.099 1620.63 347.096 1581.79 326.455C1540.45 304.588 1497.17 297.611 1460.29 293.671C1369.91 283.758 1290.04 299.616 1216.12 342.15C1157.26 376.171 1106.8 421.685 1058.01 465.701C1048.15 474.591 1037.96 483.786 1028.05 492.549C1021.99 497.913 1016.62 502.623 1011.63 506.947C988.419 527.033 957.541 552.788 924.545 573.835C891.392 594.981 860.034 609.004 828.683 616.701C794.488 625.098 760.361 625.16 729.994 616.885C713.11 612.282 697.441 605.105 683.422 595.553C668.286 585.239 654.918 572.036 643.686 556.317C642.668 554.885 641.647 553.405 640.654 551.922C623.434 526.21 611.86 497.003 600.67 468.76C597.962 461.927 595.165 454.863 592.342 448C577.502 411.794 561.388 380.684 543.077 352.897C540.758 349.38 538.358 345.851 535.941 342.406C491.891 279.606 432.199 227.375 363.32 191.367C282.229 149.128 197.226 131.498 123.97 141.715C74.3236 148.79 24.7537 178.499 0.624367 215.638C-16.1669 241.483 -20.7045 270.372 -12.4978 299.181L-12.7686 299.258C-17.058 284.203 -17.9323 269.168 -15.3688 254.573C-12.9998 241.083 -7.69792 227.931 0.387484 215.483C12.7736 196.418 31.5615 179.252 54.7207 165.84C76.2018 153.402 100.782 144.731 123.93 141.433C162.4 136.067 203.87 138.282 247.191 148.015C286.304 156.804 325.419 171.303 363.449 191.113C432.368 227.144 492.094 279.403 536.173 342.243C538.59 345.687 540.99 349.219 543.311 352.739C561.63 380.543 577.753 411.667 592.601 447.89C595.424 454.754 598.222 461.82 600.929 468.653C612.114 496.882 623.682 526.075 640.885 551.762C641.878 553.244 642.896 554.718 643.914 556.15C684.113 612.423 753.159 634.955 828.615 616.428C897.404 599.536 957.141 553.723 1011.45 506.736C1016.43 502.412 1021.81 497.705 1027.86 492.341C1037.77 483.577 1047.96 474.386 1057.82 465.496C1106.62 421.47 1157.08 375.946 1215.97 341.91C1235.89 330.446 1256.5 320.798 1277.2 313.227C1297.01 305.989 1317.57 300.416 1338.3 296.664C1376.86 289.688 1416.77 288.62 1460.31 293.395C1497.22 297.338 1540.54 304.317 1581.92 326.21C1620.79 346.865 1655.44 376.879 1688.96 405.906C1695.99 411.997 1703.26 418.294 1710.34 424.295C1793.58 494.855 1878.62 574.683 1963.1 661.555L1962.89 661.75Z" fill="#A1A1A1"/>
<path d="M1959.91 659.094C1876.18 571.269 1792.55 490.474 1711.33 418.95C1703.87 412.377 1696.19 405.418 1688.77 398.687C1656.49 369.426 1623.11 339.167 1585.05 319.191C1543.55 297.51 1500.23 293.019 1463.33 291.486C1376.37 287.608 1297.61 307.2 1222.56 351.386C1169.93 382.521 1123.01 421.927 1077.63 460.033C1062.03 473.137 1047.29 485.514 1032.3 497.597C1026.21 502.516 1020.65 506.936 1015.32 511.104C980.932 537.981 952.318 557.413 925.273 572.256C891.344 590.879 859.436 602.52 827.727 607.842C815.425 609.905 803.169 610.934 791.135 610.934C769.803 610.934 749.162 607.709 730.16 601.322C695.771 589.763 667.406 568.434 645.852 537.927C644.836 536.481 643.824 535.001 642.842 533.524C625.885 508.035 613.987 479.346 602.48 451.599C599.564 444.569 596.552 437.303 593.515 430.236C578.041 394.115 561.548 363.264 543.105 335.92C540.753 332.433 538.319 328.935 535.868 325.522C491.222 263.294 431.068 211.779 361.912 176.551C280.266 135.125 195.029 118.461 121.9 129.628C72.0476 137.399 23.9074 166.545 -0.737963 203.881C-17.8704 229.833 -23.0088 258.894 -15.603 287.923L-15.8766 287.994C-19.743 272.835 -20.2563 257.71 -17.3995 243.038C-14.7541 229.458 -9.22945 216.233 -0.972025 203.726C11.5438 184.765 30.25 167.655 53.1271 154.244C74.377 141.785 98.7855 132.946 121.857 129.349C160.282 123.481 201.798 125.195 245.248 134.443C284.456 142.789 323.75 156.871 362.042 176.297C431.237 211.548 491.425 263.091 536.099 325.355C538.55 328.772 540.984 332.27 543.339 335.759C561.794 363.117 578.295 393.985 593.774 430.121C596.812 437.187 599.826 444.456 602.74 451.486C614.24 479.219 626.133 507.897 643.076 533.364C644.058 534.838 645.068 536.318 646.083 537.761C686.332 594.732 752.521 620.174 827.679 607.56C899.223 595.552 962.592 551.95 1015.15 510.879C1020.48 506.71 1026.03 502.293 1032.13 497.375C1047.11 485.291 1061.85 472.917 1077.45 459.813C1122.83 421.698 1169.76 382.287 1222.42 351.141C1242.19 339.5 1262.48 329.437 1282.74 321.229C1302.35 313.28 1322.57 306.811 1342.83 302.005C1381.47 292.842 1420.89 289.307 1463.34 291.201C1500.27 292.735 1543.63 297.231 1585.18 318.937C1623.27 338.927 1656.66 369.2 1688.96 398.472C1696.38 405.203 1704.06 412.163 1711.52 418.733C1792.74 490.263 1876.38 571.066 1960.11 658.897L1959.91 659.094Z" fill="#A1A1A1"/>
<path d="M1956.92 656.439C1872.78 566.399 1792.83 486.898 1712.51 413.392C1704.85 406.379 1697.3 399.217 1689.31 391.635C1658.08 361.993 1625.79 331.346 1588.32 311.928C1546.29 290.255 1501.08 288.451 1466.38 289.302C1383.38 291.072 1305.73 314.402 1229 360.626C1182.97 388.495 1140.47 421.961 1099.37 454.328C1077.76 471.339 1057.36 487.402 1036.55 502.649C1030.38 507.178 1024.64 511.305 1019.01 515.265C984.153 539.776 954.598 557.382 925.996 570.675C891.279 586.809 858.822 596.069 826.768 598.983C810.299 600.48 793.942 600.198 778.152 598.146C761.434 595.973 745.342 591.804 730.324 585.758C697.038 572.355 669.347 550.079 648.018 519.544C647.011 518.095 646.007 516.613 645.032 515.135C628.359 489.908 616.162 461.766 604.365 434.552C601.218 427.291 597.963 419.782 594.689 412.482C578.566 376.439 561.701 345.845 543.131 318.952C540.742 315.496 538.274 312.029 535.795 308.647C490.554 246.991 429.941 196.192 360.508 161.745C296.423 130.083 230.335 113.562 169.733 113.562C152.601 113.562 135.919 114.881 119.83 117.551C70.579 125.883 22.7406 155.132 -2.04858 192.068C-19.5449 218.141 -25.3065 247.399 -18.7101 276.677L-18.9865 276.739C-22.4299 261.462 -22.5737 246.232 -19.4151 231.477C-16.4878 217.797 -10.7234 204.485 -2.2855 191.911C10.3601 173.068 28.9788 156.029 51.5627 142.631C72.8803 129.984 96.4709 121.215 119.78 117.274C158.159 110.904 199.72 112.119 243.303 120.88C282.604 128.778 322.081 142.44 360.633 161.488C430.104 195.955 490.755 246.782 536.024 308.475C538.506 311.857 540.976 315.327 543.365 318.785C561.944 345.693 578.817 376.301 594.948 412.36C598.223 419.661 601.48 427.17 604.627 434.434C616.418 461.637 628.61 489.767 645.268 514.975C646.244 516.449 647.248 517.932 648.252 519.378C688.138 576.476 753.193 605.384 826.746 598.698C901.173 591.931 968.507 550.428 1018.86 515.028C1024.48 511.068 1030.21 506.942 1036.39 502.415C1057.2 487.174 1077.6 471.108 1099.2 454.1C1140.31 421.73 1182.81 388.255 1228.86 360.378C1268.37 336.58 1307.13 319.236 1347.37 307.353C1386.18 295.892 1425.11 289.894 1466.38 289.014C1489.92 288.437 1509.13 289.44 1526.83 292.169C1549.68 295.692 1569.84 302.071 1588.45 311.671C1625.96 331.106 1658.27 361.771 1689.51 391.426C1697.5 399.008 1705.05 406.168 1712.7 413.181C1793.03 486.689 1872.98 566.196 1957.13 656.242L1956.92 656.439Z" fill="#A1A1A1"/>
<path d="M1953.92 653.784C1870.55 562.757 1791.97 482.308 1713.68 407.833C1705.94 400.465 1698.3 392.874 1690.22 384.838C1659.92 354.729 1628.6 323.591 1591.58 304.66C1549.21 283.089 1504.04 283.951 1469.43 287.111C1391.1 294.014 1314.56 321.082 1235.45 369.857C1196.47 394.005 1159.36 421.639 1123.46 448.366C1095.09 469.492 1068.29 489.448 1040.8 507.688C1034.59 511.815 1028.5 515.761 1022.7 519.414C987.774 541.411 956.377 557.655 926.717 569.076C891.203 582.753 858.196 589.636 825.809 590.115C809.331 590.357 793.039 588.869 777.396 585.687C760.996 582.349 745.215 577.132 730.488 570.176C698.344 554.991 671.324 531.768 650.181 501.149C649.188 499.703 648.19 498.217 647.217 496.732C630.857 471.812 618.395 444.265 606.342 417.625C602.932 410.088 599.404 402.291 595.859 394.712C579.076 358.737 561.837 328.402 543.156 301.969C540.733 298.544 538.232 295.108 535.719 291.756C489.883 230.673 428.807 180.59 359.098 146.924C276.343 107.124 190.63 92.3988 117.755 105.461C69.1407 114.325 21.621 143.651 -3.30642 180.167C-21.1975 206.378 -27.5993 235.856 -21.8236 265.419L-22.1 265.472C-25.1119 250.062 -24.8806 234.715 -21.409 219.857C-18.1856 206.065 -12.1758 192.657 -3.54048 180.007C9.2292 161.299 27.7548 144.345 50.0341 130.975C71.1063 118.331 94.5052 109.412 117.704 105.182C156.041 98.3124 197.644 99.0228 241.357 107.298C280.754 114.757 320.408 128.002 359.22 146.667C428.971 180.35 490.081 230.464 535.942 291.585C538.458 294.936 540.962 298.375 543.384 301.802C562.076 328.25 579.322 358.599 596.113 394.588C599.661 402.167 603.186 409.964 606.598 417.504C618.646 444.132 631.103 471.668 647.451 496.571C648.424 498.054 649.422 499.539 650.412 500.982C690.718 559.352 753.007 590.91 825.804 589.827C884.872 588.954 947.389 566.5 1022.55 519.169C1028.34 515.515 1034.43 511.572 1040.64 507.446C1068.13 489.209 1094.92 469.258 1123.29 448.132C1159.19 421.402 1196.31 393.762 1235.3 369.609C1275.19 345.016 1313.33 326.401 1351.9 312.694C1390.97 298.809 1429.41 290.344 1469.4 286.821C1504.05 283.656 1549.28 282.796 1591.71 304.401C1628.77 323.354 1660.11 354.506 1690.42 384.63C1698.5 392.666 1706.14 400.254 1713.88 407.619C1792.17 482.097 1870.76 562.551 1954.13 653.583L1953.92 653.784Z" fill="#A1A1A1"/>
<path d="M1950.93 651.128C1868.34 559.112 1791.12 477.711 1714.86 402.277C1707.12 394.619 1699.48 386.662 1691.38 378.237C1661.95 347.589 1631.51 315.899 1594.86 297.397C1552.08 275.904 1506.99 279.442 1472.48 284.924C1398.78 296.41 1325.51 326.333 1241.9 379.094C1210.54 398.971 1179.89 420.776 1150.25 441.863C1114.26 467.474 1080.26 491.667 1045.05 512.736C1038.71 516.536 1032.43 520.183 1026.39 523.571C990.839 543.511 958.472 557.875 927.442 567.481C910.061 572.862 892.904 576.76 876.445 579.069C858.89 581.529 841.531 582.265 824.853 581.256C791.014 579.207 759.321 570.238 730.657 554.599C699.7 537.71 673.354 513.542 652.352 482.762C651.365 481.305 650.375 479.817 649.408 478.34C633.398 453.786 620.713 426.893 608.448 400.888C604.734 393.015 600.896 384.875 597.035 376.954C579.575 341.039 561.961 310.96 543.184 284.997C540.727 281.601 538.189 278.196 535.646 274.878C489.214 214.364 427.679 164.997 357.693 132.117C274.386 93.1318 188.439 79.3766 115.684 93.3826C37.7829 108.612 -38.1273 174.414 -24.929 254.169L-25.2082 254.214C-28.5106 234.264 -26.576 214.609 -19.4607 195.791C-12.963 178.606 -2.30001 162.432 12.2323 147.724C25.7437 134.048 41.9539 122.24 60.4091 112.629C77.9617 103.488 97.057 96.7341 115.628 93.1036C153.92 85.7327 195.568 85.9441 239.413 93.735C278.907 100.751 318.741 113.579 357.812 131.863C427.836 164.766 489.409 214.161 535.868 274.709C538.415 278.029 540.953 281.434 543.412 284.834C562.197 310.808 579.821 340.903 597.289 376.833C601.149 384.754 604.988 392.894 608.702 400.769C620.964 426.766 633.643 453.648 649.645 478.188C650.609 479.665 651.596 481.153 652.583 482.607C692.948 541.76 754.135 576.692 824.87 580.977C884.753 584.599 950.627 565.745 1026.25 523.329C1032.29 519.941 1038.56 516.296 1044.91 512.497C1080.1 491.433 1114.1 467.243 1150.09 441.635C1179.73 420.545 1210.38 398.737 1241.74 378.857C1325.39 326.074 1398.7 296.14 1472.44 284.645C1495.62 280.961 1514.82 279.783 1532.85 280.941C1555.91 282.421 1576.23 287.72 1594.98 297.143C1631.67 315.665 1662.13 347.375 1691.58 378.039C1699.68 386.462 1707.32 394.419 1715.06 402.074C1791.32 477.514 1868.55 558.918 1951.14 650.94L1950.93 651.128Z" fill="#A1A1A1"/>
<path d="M1947.95 648.474C1866.14 555.454 1790.28 473.106 1716.04 396.719C1708.36 388.816 1700.76 380.537 1692.73 371.768C1664.09 340.534 1634.47 308.235 1598.12 290.13C1554.42 268.458 1507.23 275.53 1475.53 282.734C1389.5 302.048 1312.41 346.95 1248.34 388.331C1225.32 403.264 1202.35 419.083 1180.13 434.38C1135.57 465.067 1093.49 494.052 1049.3 517.785C1042.81 521.277 1036.34 524.623 1030.09 527.732C993.84 545.713 960.503 558.194 928.173 565.883C891.522 574.601 856.442 576.794 823.9 572.397C790.47 567.879 759.155 556.649 730.829 539.018C701.119 520.527 675.447 495.416 654.521 464.379C653.546 462.922 652.561 461.431 651.6 459.948C635.987 435.846 623.144 409.691 610.722 384.396C606.652 376.106 602.442 367.537 598.211 359.197C579.81 322.83 562.333 293.862 543.215 268.026C540.725 264.661 538.156 261.29 535.576 258C488.544 198.061 426.545 149.41 356.284 117.308C272.424 79.1401 186.239 66.3517 113.609 81.302C35.4286 97.6082 -38.9306 162.517 -28.0392 242.92L-28.3184 242.957C-31.0201 223.009 -28.6822 203.374 -21.3723 184.599C-14.6716 167.396 -3.94655 151.206 10.5096 136.481C23.99 122.748 40.1156 110.853 58.4411 101.12C75.8894 91.8524 94.948 84.9043 113.553 81.023C151.802 73.1504 193.493 72.8629 237.468 80.1661C277.057 86.7393 317.072 99.15 356.402 117.051C426.706 149.17 488.738 197.849 535.793 257.825C538.373 261.118 540.945 264.492 543.438 267.857C562.567 293.705 580.049 322.689 598.46 359.07C602.69 367.411 606.9 375.982 610.97 384.272C623.39 409.558 636.23 435.705 651.831 459.796C652.793 461.279 653.774 462.767 654.75 464.224C695.428 524.555 755.511 562.873 823.934 572.118C885.301 580.411 952.691 565.807 1029.96 527.478C1036.21 524.372 1042.68 521.029 1049.17 517.537C1093.34 493.809 1135.42 464.83 1179.97 434.146C1202.19 418.849 1225.16 403.027 1248.19 388.091C1291.27 360.268 1327.11 339.711 1360.97 323.399C1400.83 304.199 1438.28 290.807 1475.46 282.458C1498.13 277.305 1517.89 274.972 1535.87 275.327C1559.02 275.783 1579.42 280.541 1598.25 289.877C1634.65 308.004 1664.28 340.323 1692.93 371.577C1700.97 380.343 1708.56 388.621 1716.24 396.519C1790.49 472.909 1866.34 555.262 1948.16 648.285L1947.95 648.474Z" fill="#A1A1A1"/>
<path d="M1944.96 645.815C1863.94 551.789 1789.44 468.491 1717.21 391.157C1709.64 383.048 1702.14 374.482 1694.21 365.412C1666.32 333.549 1637.49 300.601 1601.39 282.863C1557.21 261.241 1510.14 271.183 1478.58 280.544C1400.64 303.462 1331.11 347.101 1254.79 397.564C1241.02 406.7 1227.1 416.128 1213.64 425.25C1161.85 460.325 1108.3 496.593 1053.55 522.83C1046.9 526.021 1040.25 529.068 1033.78 531.886C997.284 547.761 961.998 558.658 928.898 564.276C891.401 570.64 855.754 570.39 822.939 563.534C789.977 556.648 759.042 543.155 730.993 523.43C702.608 503.468 677.604 477.415 656.679 445.995C655.712 444.535 654.736 443.041 653.78 441.558C638.638 418.02 625.714 392.716 613.215 368.247C608.711 359.43 604.055 350.315 599.376 341.444C580.255 305.114 562.415 276.394 543.232 251.06C540.714 247.734 538.108 244.391 535.491 241.127C487.872 181.751 425.417 133.817 354.874 102.498C270.464 65.1476 184.045 53.3288 111.533 69.2206C35.8347 85.9918 -39.8979 148.623 -31.1526 231.667L-31.4318 231.696C-33.5328 211.748 -30.7916 192.135 -23.2872 173.402C-16.3862 156.18 -5.59633 139.975 8.78085 125.234C35.3073 98.0389 72.7365 77.5217 111.471 68.9416C149.676 60.5701 191.412 59.7808 235.519 66.5964C275.204 72.7299 315.397 84.7206 354.987 102.239C425.57 133.574 488.061 181.54 535.711 240.944C538.331 244.211 540.937 247.554 543.458 250.882C562.649 276.231 580.498 304.962 599.624 341.306C604.303 350.179 608.962 359.295 613.466 368.112C625.962 392.575 638.884 417.873 654.017 441.401C654.97 442.883 655.946 444.374 656.913 445.834C698.778 508.697 756.208 549.3 822.992 563.255C884.833 576.176 955.709 565.536 1033.66 531.627C1040.13 528.808 1046.78 525.764 1053.42 522.576C1108.15 496.348 1161.69 460.086 1213.47 425.016C1226.94 415.894 1240.86 406.466 1254.63 397.33C1288.04 375.24 1326.91 349.903 1365.5 328.749C1405.85 306.622 1442.82 290.767 1478.49 280.276C1500.95 273.615 1520.71 270.159 1538.88 269.714C1561.8 269.15 1582.87 273.491 1601.51 282.612C1617.68 290.558 1633.96 302.417 1651.27 318.866C1666.56 333.391 1680.72 349.576 1694.41 365.225C1702.35 374.293 1709.84 382.859 1717.41 390.966C1789.65 468.302 1864.14 551.603 1945.17 645.632L1944.96 645.815Z" fill="#A1A1A1"/>
<path d="M1941.96 643.16C1861.74 548.119 1788.61 463.871 1718.39 385.602C1710.95 377.315 1703.59 368.49 1695.79 359.149C1668.63 326.624 1640.55 292.991 1604.66 275.603C1571.11 259.404 1530.87 260.306 1481.63 278.359C1412.78 303.46 1351.24 345.444 1286.08 389.898C1277.97 395.434 1269.58 401.156 1261.23 406.807C1257.97 409.025 1254.69 411.249 1251.43 413.47C1189.34 455.663 1125.15 499.294 1057.8 527.881C1051 530.773 1044.16 533.521 1037.47 536.047C1000.17 550.121 963.894 559.078 929.634 562.669C891.272 566.689 855.052 564 821.989 554.676C789.54 545.523 758.986 529.767 731.177 507.843C704.222 486.593 679.889 459.601 658.854 427.612C657.895 426.149 656.928 424.652 655.977 423.167C641.411 400.366 628.529 376.083 616.066 352.601C611.021 343.091 605.801 333.256 600.558 323.684C580.699 287.379 562.497 258.908 543.269 234.086C540.714 230.788 538.078 227.479 535.427 224.246C487.205 165.445 424.287 118.224 353.467 87.6889C268.51 51.1587 181.852 40.3067 109.461 57.1399C35.1526 74.5623 -40.4728 137.707 -34.26 220.418L-34.542 220.441C-36.0395 200.49 -32.8979 180.9 -25.1988 162.215C-18.0948 144.973 -7.24286 128.749 7.05817 113.996C33.4718 86.7447 70.7713 65.923 109.396 56.8665C147.559 47.9933 189.336 46.7023 233.573 53.0331C273.355 58.7212 313.731 70.2948 353.58 87.4296C424.439 117.984 487.396 165.231 535.638 224.063C538.289 227.296 540.932 230.611 543.487 233.909C562.723 258.744 580.935 287.224 600.801 323.543C606.046 333.115 611.264 342.952 616.312 352.463C628.768 375.94 641.651 400.217 656.211 423.009C657.162 424.494 658.126 425.988 659.085 427.451C701.858 492.495 758.214 536.391 822.062 554.397C885.09 572.171 957.529 565.905 1037.37 535.776C1044.05 533.251 1050.89 530.505 1057.69 527.616C1125.01 499.04 1189.2 455.418 1251.27 413.231C1254.54 411.007 1257.81 408.786 1261.07 406.567C1269.42 400.916 1277.81 395.194 1285.92 389.661C1351.09 345.199 1412.65 303.203 1481.53 278.092C1503.77 269.934 1523.52 265.359 1541.9 264.1C1564.91 262.524 1586.06 266.309 1604.78 275.346C1620.86 283.134 1636.93 295.046 1653.92 311.764C1668.91 326.514 1682.68 343.012 1696 358.965C1703.8 368.304 1711.17 377.126 1718.6 385.41C1788.82 463.683 1861.96 547.933 1942.18 642.977L1941.96 643.16Z" fill="#A1A1A1"/>
<path d="M1938.98 640.505C1865.76 551.942 1791.94 464.308 1719.56 380.044C1712.2 371.514 1704.89 362.351 1697.16 352.652C1672.02 321.099 1643.52 285.338 1607.92 268.339C1573.98 252.168 1533.67 254.73 1484.67 276.169C1426.41 301.577 1374.86 338.936 1320.27 378.488C1303.18 390.873 1285.51 403.684 1267.68 416.041C1236.56 437.658 1202.89 460.531 1167.6 481.364C1129.81 503.677 1095.28 520.541 1062.05 532.927C1055.06 535.528 1048.04 537.978 1041.15 540.202C1003.07 552.5 965.8 559.498 930.382 561.004C891.173 562.667 854.381 557.559 821.025 545.811C759.427 523.848 705.59 477.895 661.012 409.226C660.061 407.76 659.102 406.26 658.158 404.775C644.33 382.981 631.673 359.989 619.434 337.752C613.672 327.286 607.716 316.462 601.723 305.929C581.108 269.633 562.54 241.412 543.29 217.118C540.698 213.848 538.027 210.57 535.345 207.371C486.537 149.136 423.156 102.634 352.06 72.8796C266.553 37.1667 179.661 27.2872 107.389 45.0591C32.629 63.5469 -41.1012 125.854 -37.3702 209.169L-37.6522 209.18C-38.5462 189.224 -34.9984 169.657 -27.1104 151.019C-19.8006 133.755 -8.88656 117.514 5.33268 102.749C18.7284 88.839 34.606 76.6763 52.5224 66.5967C69.9172 56.813 88.3526 49.4732 107.318 44.7828C145.438 35.4107 187.261 33.618 231.628 39.4612C271.505 44.7124 312.059 55.8659 352.167 72.6174C423.306 102.388 486.723 148.919 535.56 207.182C538.241 210.384 540.918 213.665 543.51 216.934C562.768 241.243 581.345 269.475 601.969 305.782C607.961 316.319 613.918 327.142 619.679 337.611C631.919 359.845 644.573 382.834 658.394 404.62C659.336 406.108 660.298 407.605 661.246 409.071C705.79 477.686 759.579 523.602 821.118 545.543C884.506 567.867 960.563 565.928 1041.06 539.931C1047.94 537.707 1054.97 535.261 1061.95 532.662C1136.26 504.974 1204.24 459.753 1267.51 415.807C1285.34 403.45 1303.02 390.642 1320.11 378.257C1374.7 338.696 1426.27 301.329 1484.56 275.91C1533.63 254.437 1574.02 251.875 1608.04 268.082C1623.99 275.696 1639.82 287.63 1656.44 304.562C1671.1 319.493 1684.46 336.261 1697.38 352.474C1705.11 362.173 1712.41 371.334 1719.78 379.858C1792.15 464.125 1865.97 551.758 1939.19 640.324L1938.98 640.505Z" fill="#A1A1A1"/>
<path d="M1935.99 637.849C1863.89 548.796 1791.47 460.187 1720.74 374.485C1713.6 365.863 1706.52 356.538 1699.02 346.667C1674.5 314.379 1646.7 277.781 1611.19 261.069C1576.84 244.927 1536.46 249.149 1487.72 273.973C1436.65 299.945 1389.74 336.616 1344.37 372.084C1321.62 389.867 1298.09 408.256 1274.12 425.272C1236.28 452.157 1204.45 472.666 1173.93 489.817C1136.3 510.966 1101.09 526.717 1066.3 537.969C1059.15 540.28 1051.93 542.428 1044.84 544.354C1007.89 554.38 971.595 559.453 936.879 559.456C934.95 559.456 933.032 559.439 931.115 559.408C890.978 558.754 853.617 551.194 820.068 536.943C803.875 530.026 788.017 521.246 772.938 510.845C758.763 501.07 744.835 489.555 731.538 476.623C707.614 453.358 685.25 425.295 663.174 390.836C662.227 389.354 661.282 387.868 660.343 386.377C647.533 366.046 635.415 344.793 623.697 324.239C616.932 312.375 609.938 300.105 602.893 288.163C581.203 251.367 562.83 224.218 543.312 200.138C540.686 196.899 537.982 193.652 535.266 190.484C485.865 132.827 422.025 87.0405 350.652 58.0672C264.598 23.1746 177.469 14.2647 105.315 32.9752C31.9574 52.0521 -41.677 114.833 -40.4784 197.914L-40.7604 197.917C-41.3188 159.219 -25.9743 122.421 3.61195 91.5025C16.9852 77.5274 32.7781 65.2774 50.5564 55.085C67.8552 45.1689 86.2539 37.6373 105.245 32.699C143.32 22.8251 185.188 20.5335 229.684 25.889C269.657 30.7005 310.392 41.4369 350.757 57.8022C422.174 86.7953 486.051 132.61 535.483 190.3C538.199 193.471 540.909 196.721 543.534 199.96C563.061 224.054 581.443 251.212 603.139 288.022C610.183 299.967 617.18 312.237 623.943 324.101C635.661 344.652 647.776 365.902 660.582 386.228C661.521 387.719 662.463 389.204 663.411 390.684C710.322 463.908 761.6 511.665 820.178 536.684C901.311 571.151 987.092 559.732 1044.77 544.083C1051.85 542.158 1059.07 540.013 1066.21 537.701C1146.24 511.82 1219.27 463.9 1273.96 425.044C1297.92 408.033 1321.45 389.644 1344.19 371.864C1389.58 336.39 1436.5 299.708 1487.59 273.725C1509.4 262.617 1529.14 255.796 1547.93 252.875C1571.11 249.273 1592.43 251.945 1611.31 260.818C1627.21 268.302 1642.89 280.332 1659.24 297.594C1673.65 312.804 1686.66 329.933 1699.25 346.501C1706.74 356.369 1713.82 365.691 1720.96 374.307C1791.68 460.01 1864.1 548.618 1936.21 637.672L1935.99 637.849Z" fill="#A1A1A1"/>
<path d="M1933 635.194L1721.92 368.93C1715.02 360.234 1708.18 350.772 1700.93 340.757C1677.01 307.705 1649.9 270.244 1614.46 253.809C1580.18 237.917 1538.57 243.966 1490.77 271.789C1444.82 298.536 1402.91 334.105 1362.37 368.504C1335.96 390.927 1308.64 414.11 1280.57 434.515C1196.2 495.844 1122.47 532.067 1048.54 548.514C1017.86 555.335 987.606 558.768 958.262 558.768C949.368 558.768 940.563 558.453 931.852 557.821C890.767 554.845 852.836 544.839 819.116 528.084C787.863 512.553 759.272 490.629 731.719 461.056C709.716 437.441 688.624 409.288 665.344 372.456C653.056 353.018 641.158 332.822 629.652 313.291C603.61 269.094 576.683 223.392 543.346 183.169C492.211 121.477 425.091 73.0967 349.243 43.258C262.644 9.1885 175.279 1.24543 103.243 20.8945C33.5006 39.9179 -42.1953 99.9053 -43.5885 186.665L-43.8705 186.659C-43.2472 147.879 -27.4233 111.087 1.88945 80.259C28.3933 52.3849 64.3616 31.2053 103.17 20.6211C141.203 10.2483 183.116 7.455 227.739 12.3229C267.808 16.6919 308.723 27.0139 349.347 42.9959C386.878 57.7602 422.522 77.1951 455.292 100.762C488.336 124.527 518.035 152.189 543.561 182.983C576.912 223.22 603.847 268.934 629.894 313.142C641.4 332.67 653.299 352.863 665.583 372.298C699.549 426.039 747.712 492.281 819.242 527.825C901.275 568.586 989.177 561.421 1048.47 548.232C1122.37 531.796 1196.07 495.587 1280.4 434.281C1308.46 413.885 1335.77 390.701 1362.19 368.284C1402.73 333.879 1444.65 298.302 1490.63 271.541C1538.51 243.67 1580.21 237.615 1614.58 253.549C1630.44 260.909 1645.98 273.043 1662.07 290.652C1676.24 306.152 1688.91 323.659 1701.16 340.588C1708.41 350.602 1715.25 360.059 1722.14 368.752L1933.22 635.017L1933 635.194Z" fill="#A1A1A1"/>
<path d="M1931.29 614.725C1877.55 540.588 1831.43 480.429 1786.16 425.405C1764.19 398.676 1741.75 372.366 1719.47 347.206C1712.73 339.596 1706.05 331.501 1698.98 322.929C1681.21 301.386 1662.84 279.11 1641.7 262.578C1630.34 253.685 1619.42 247.318 1608.29 243.112C1574.13 230.076 1534.05 238.695 1489.16 268.734C1465.93 284.256 1444.78 301.921 1427.16 317.153C1408.5 333.279 1390.09 351.062 1372.29 368.259C1346.7 392.979 1320.24 418.539 1291.8 440.491C1274.49 453.888 1256.94 465.859 1239.65 476.074C1205.04 496.51 1167.9 513.348 1129.26 526.123C1105.38 533.928 1081.38 539.827 1057.94 543.655C1037.74 546.942 1017.51 548.839 997.791 549.292C968.284 549.975 939.535 547.373 912.343 541.552C883.431 535.362 856.069 525.483 831.021 512.184C808.685 500.326 787.587 485.395 766.524 466.536C727.273 431.42 695.966 390.817 673.078 359.366C661.834 343.844 650.855 328.014 640.237 312.706C609.663 268.618 580.785 226.978 544.647 189.887C515.174 159.834 481.546 133.899 444.69 112.798C416.367 96.5823 385.562 83.3204 353.133 73.3789C345.409 71.014 337.538 68.8098 329.746 66.8339C296.197 58.3412 258.429 52.8109 217.495 50.3953C176.225 47.9035 140.518 50.0598 108.343 56.9938C90.1533 60.8836 72.5301 66.9861 55.956 75.1293C-2.5567 103.88 -40.1297 152.144 -44.5517 204.239L-44.9042 204.208C-43.7254 190.321 -40.265 176.642 -34.6219 163.546C-29.2608 151.107 -21.8974 139.111 -12.7375 127.89C4.56985 106.693 28.2705 88.3377 55.8009 74.8108C72.4003 66.6535 90.0517 60.5426 108.27 56.6471C140.479 49.7075 176.213 47.5484 217.517 50.0429C258.475 52.4585 296.262 57.9945 329.833 66.4928C337.634 68.4715 345.508 70.6758 353.238 73.0435C385.692 82.9906 416.522 96.2638 444.867 112.494C481.749 133.609 515.405 159.566 544.893 189.639C581.053 226.752 609.937 268.404 640.522 312.503C651.137 327.811 662.116 343.638 673.357 359.158C696.234 390.594 727.526 431.178 766.755 466.271C787.796 485.111 808.871 500.027 831.181 511.871C880.204 537.896 936.255 550.369 997.78 548.94C1017.48 548.486 1037.7 546.589 1057.89 543.305C1081.31 539.478 1105.28 533.584 1129.14 525.784C1167.77 513.019 1204.89 496.191 1239.47 475.767C1256.75 465.56 1274.29 453.595 1291.58 440.209C1320.01 418.268 1346.46 392.714 1372.04 368.003C1389.84 350.803 1408.25 333.014 1426.92 316.883C1444.56 301.642 1465.72 283.972 1488.97 268.438C1508.95 255.063 1528.3 245.824 1546.48 240.973C1568.81 235.014 1589.65 235.623 1608.41 242.782C1619.57 247.002 1630.53 253.386 1641.91 262.299C1663.09 278.856 1681.47 301.146 1699.25 322.703C1706.32 331.272 1713 339.367 1719.73 346.972C1742.02 372.135 1764.47 398.447 1786.44 425.183C1831.71 480.212 1877.83 540.377 1931.58 614.52L1931.29 614.725Z" fill="#A1A1A1"/>
<path d="M1929.59 594.25C1879.76 518.859 1832.99 455.771 1786.6 401.384C1763.98 374.818 1740.57 349.281 1717.02 325.482C1710.77 319.169 1704.61 312.607 1698.07 305.661C1678.51 284.862 1658.29 263.356 1635.63 248.476C1624.19 240.93 1613.23 235.676 1602.12 232.412C1559.56 219.908 1516.34 243.597 1487.56 265.67C1467.18 281.263 1448.56 298.894 1429.7 317.094C1413.19 333.025 1397.66 350.163 1381.22 368.304C1356.82 395.234 1331.58 423.08 1303.03 446.461C1286.08 460.41 1268.39 472.472 1250.46 482.309C1217.06 500.636 1180.48 514.868 1138.63 525.821C1115.21 531.949 1091.23 536.315 1067.35 538.793C1047.2 540.859 1027.08 541.597 1007.56 540.98C978.521 540.072 950.133 535.991 923.184 528.851C894.881 521.351 867.875 510.391 842.919 496.278C821.055 483.915 799.943 468.576 778.377 449.387C739.211 414.584 705.659 376.002 680.808 346.276C671.609 335.272 662.556 324.2 653.799 313.489C618.928 270.836 585.991 230.546 545.951 196.603C516.026 171.235 482.429 149.785 446.1 132.85C418.612 120.036 389.477 110.436 357.034 103.499C349.546 101.901 341.929 100.461 334.396 99.2176C301.31 93.786 265.999 91.7312 223.276 89.6059C192.48 87.9964 152.166 86.9366 113.437 93.0869C95.0944 95.9451 77.364 100.909 60.7335 107.834C2.18134 132.224 -37.5378 174.832 -45.5188 221.814L-45.9362 221.743C-43.8211 209.285 -39.5345 197.066 -33.2032 185.422C-27.1681 174.327 -19.2378 163.69 -9.63512 153.796C8.61414 135.001 32.8901 118.971 60.57 107.443C77.2315 100.503 94.9957 95.5308 113.369 92.667C152.135 86.5081 192.48 87.5708 223.296 89.1802C266.033 91.3055 301.355 93.3604 334.464 98.7948C342.002 100.041 349.625 101.481 357.121 103.079C389.595 110.024 418.759 119.633 446.278 132.461C482.644 149.413 516.268 170.88 546.224 196.274C586.293 230.242 619.244 270.543 654.126 313.213C662.88 323.921 671.933 334.993 681.132 345.994C705.978 375.709 739.515 414.277 778.659 449.062C800.199 468.232 821.289 483.555 843.128 495.903C892.199 523.653 947.53 538.674 1007.58 540.551C1027.08 541.166 1047.17 540.43 1067.31 538.364C1091.16 535.889 1115.13 531.529 1138.52 525.404C1180.33 514.462 1216.88 500.241 1250.26 481.931C1268.17 472.105 1285.83 460.061 1302.76 446.125C1331.29 422.764 1356.52 394.929 1380.91 368.014C1397.36 349.864 1412.89 332.724 1429.41 316.784C1448.28 298.572 1466.9 280.936 1487.31 265.326C1505.96 251.015 1524.36 240.722 1541.99 234.723C1563.38 227.451 1583.65 226.535 1602.24 231.998C1613.4 235.276 1624.4 240.547 1635.87 248.115C1658.56 263.023 1678.81 284.549 1698.38 305.365C1704.91 312.308 1711.08 318.867 1717.33 325.178C1740.89 348.985 1764.3 374.531 1786.93 401.105C1833.32 455.506 1880.11 518.605 1929.95 594.014L1929.59 594.25Z" fill="#A1A1A1"/>
<path d="M1927.89 573.775C1881.25 496.106 1835.18 431.859 1787.04 377.366C1763.77 350.963 1739.39 326.201 1714.58 303.761C1709.28 298.964 1703.82 293.873 1698.54 288.952C1676.73 268.618 1654.19 247.593 1629.58 234.376C1618.02 228.13 1607.02 223.987 1595.96 221.712C1553.5 212.977 1512.7 239.129 1485.96 262.603C1467.84 278.449 1451.27 296.41 1435.25 313.782L1432.25 317.034C1417.7 332.794 1404.05 350.078 1389.6 368.38C1366.59 397.522 1342.8 427.654 1314.26 452.43C1297.65 466.952 1279.82 479.104 1261.27 488.546C1228.93 505.01 1192.93 516.758 1148 525.519C1124.76 530.049 1100.79 532.879 1076.74 533.927C1056.65 534.77 1036.66 534.347 1017.33 532.664C958.808 527.594 904.131 509.999 854.812 480.372C833.492 467.564 812.366 451.821 790.231 432.237C752.77 399.165 719.453 365.172 688.541 333.188C684.396 328.901 680.295 324.642 676.226 320.417C634.005 276.589 594.128 235.191 547.262 203.328C516.667 182.526 483.104 165.564 447.511 152.908C421.379 143.617 393.059 137.309 360.937 133.622C353.698 132.796 346.335 132.117 339.05 131.604C320.725 130.336 301.288 130.13 280.709 129.913C264.18 129.738 247.09 129.558 229.055 128.822C194.224 127.28 154.747 125.535 118.525 129.188C99.8356 131.074 81.9981 134.896 65.5058 140.55C6.97619 160.62 -34.8919 197.575 -46.4912 239.408L-46.9678 239.275C-43.9108 228.246 -38.8007 217.487 -31.7813 207.297C-25.0693 197.553 -16.575 188.268 -6.5352 179.702C12.6673 163.32 37.5242 149.621 65.3422 140.083C81.8712 134.414 99.7454 130.584 118.471 128.695C154.73 125.039 194.226 126.787 229.072 128.329C247.096 129.061 264.186 129.245 280.709 129.419C301.297 129.636 320.739 129.842 339.081 131.113C346.371 131.629 353.743 132.309 360.988 133.134C393.149 136.824 421.503 143.141 447.671 152.445C483.307 165.115 516.906 182.098 547.536 202.922C594.444 234.813 634.341 276.231 676.578 320.079C680.648 324.304 684.751 328.56 688.894 332.85C719.8 364.828 753.106 398.813 790.555 431.874C812.668 451.435 833.771 467.164 855.066 479.955C904.32 509.545 958.927 527.114 1017.37 532.18C1036.68 533.859 1056.65 534.282 1076.72 533.44C1100.74 532.391 1124.69 529.564 1147.9 525.04C1192.79 516.288 1228.74 504.554 1261.04 488.112C1279.56 478.689 1297.35 466.56 1313.93 452.064C1342.43 427.319 1366.21 397.204 1389.21 368.078C1403.66 349.768 1417.32 332.475 1431.88 316.705L1434.88 313.452C1450.91 296.072 1467.49 278.1 1485.63 262.236C1512.46 238.686 1553.39 212.458 1596.06 221.233C1607.17 223.519 1618.21 227.676 1629.81 233.948C1654.47 247.193 1677.04 268.24 1698.87 288.597C1704.15 293.518 1709.61 298.609 1714.9 303.403C1739.73 325.854 1764.12 350.63 1787.41 377.047C1835.57 431.564 1881.65 495.833 1928.31 573.527L1927.89 573.775Z" fill="#A1A1A1"/>
<path d="M1926.19 553.297C1883.37 474.456 1836.7 407.182 1787.49 353.351C1763.56 327.114 1738.21 303.124 1712.14 282.046C1708.38 279.002 1704.52 275.842 1700.79 272.787C1676.15 252.602 1650.67 231.727 1623.53 220.283C1611.88 215.319 1600.85 212.289 1589.81 211.015C1547.47 206.133 1509.1 234.706 1484.37 259.536C1469.01 274.875 1455.15 291.934 1441.75 308.432C1439.43 311.287 1437.11 314.137 1434.79 316.975C1422.04 332.568 1410.12 349.988 1397.5 368.428C1376.05 399.777 1353.86 432.192 1325.49 458.406C1308.83 473.799 1291.36 485.699 1272.08 494.793C1231.76 513.81 1191.46 520.848 1157.36 525.229C1134.3 528.188 1110.34 529.485 1086.14 529.073C1066.1 528.693 1046.24 527.106 1027.09 524.361C970.331 516.24 916.371 496.092 866.71 464.475C846.047 451.323 824.91 435.172 802.086 415.1C779.032 394.873 757.548 375.41 736.769 356.586C722.648 343.792 709.309 331.709 696.282 320.115C647.042 276.29 601.94 237.759 548.585 210.062C517.332 193.841 483.803 181.36 448.929 172.968C423.934 166.953 397.216 164.025 364.849 163.746C357.866 163.695 350.754 163.777 343.712 163.991C333.015 164.338 321.948 165.062 310.236 165.831C287.76 167.306 262.279 168.977 234.834 168.041C224.382 167.683 213.719 167.179 203.406 166.688C176.879 165.428 149.45 164.126 123.609 165.29C104.632 166.147 86.685 168.831 70.2717 173.267C11.8408 189.066 -32.1735 220.373 -47.47 257.013L-47.9918 256.796C-43.9871 247.201 -38.0535 237.905 -30.3573 229.165C-22.9656 220.771 -13.9073 212.842 -3.43887 205.6C16.7337 191.648 42.1688 180.28 70.1194 172.723C86.5722 168.275 104.559 165.583 123.578 164.727C149.448 163.56 176.888 164.865 203.428 166.125C213.739 166.615 224.402 167.12 234.851 167.478C262.271 168.413 287.731 166.745 310.197 165.271C321.915 164.501 332.984 163.777 343.692 163.43C350.742 163.216 357.86 163.134 364.852 163.185C397.264 163.461 424.021 166.398 449.059 172.422C483.975 180.824 517.549 193.319 548.842 209.563C572.943 222.073 597.365 237.922 623.505 258.014C646.907 276 669.671 295.68 696.655 319.695C709.681 331.292 723.02 343.375 737.144 356.169C757.92 374.99 779.404 394.453 802.453 414.677C825.254 434.729 846.369 450.863 867.006 464.001C916.599 495.576 970.484 515.696 1027.17 523.805C1046.29 526.548 1066.13 528.132 1086.14 528.512C1110.31 528.924 1134.25 527.63 1157.28 524.671C1191.34 520.299 1231.58 513.269 1271.83 494.285C1291.06 485.217 1308.48 473.348 1325.1 457.994C1353.42 431.826 1375.59 399.436 1397.03 368.112C1409.66 349.661 1421.59 332.233 1434.35 316.623C1436.67 313.785 1438.99 310.935 1441.3 308.082C1454.72 291.573 1468.59 274.503 1483.96 259.144C1500.05 242.99 1516.56 230.563 1533.02 222.208C1552.52 212.312 1571.65 208.36 1589.87 210.463C1600.96 211.742 1612.04 214.787 1623.74 219.77C1650.95 231.245 1676.46 252.145 1701.13 272.355C1704.86 275.411 1708.72 278.571 1712.48 281.612C1738.57 302.707 1763.94 326.72 1787.89 352.976C1814.02 381.56 1839.61 414.127 1863.95 449.772C1885.46 481.277 1906.56 516.02 1926.67 553.032L1926.19 553.297Z" fill="#A1A1A1"/>
<path d="M1924.49 532.814C1884.85 451.712 1838.91 383.251 1787.93 329.333C1763.35 303.263 1737.03 280.048 1709.71 260.328C1708.41 259.39 1707.11 258.451 1705.8 257.51C1677.39 236.978 1648.01 215.748 1617.5 206.19C1605.67 202.486 1594.61 200.566 1583.68 200.318C1541.5 199.366 1505.53 230.326 1482.79 256.464C1469.4 271.755 1457.52 288.515 1446.03 304.723C1443.19 308.731 1440.25 312.874 1437.35 316.911C1426.31 332.284 1416.04 349.763 1405.17 368.27C1385.4 401.934 1364.95 436.742 1336.73 464.376C1320.4 480.364 1302.79 492.355 1282.9 501.036C1243.7 518.137 1203.9 522.627 1166.73 524.933C1143.81 526.354 1119.86 526.111 1095.54 524.214C1075.57 522.607 1055.83 519.859 1036.86 516.048C982.03 505.056 928.786 482.354 878.612 448.572C858.518 435.045 837.971 418.961 813.952 397.956C768.302 358.145 734.403 330.105 704.041 307.04C643.653 261.165 597.563 234.176 549.934 216.796C518.046 205.161 484.551 197.164 450.374 193.026C426.662 190.157 401.497 190.413 368.783 193.866C362.08 194.582 355.221 195.425 348.397 196.375C341.95 197.285 335.401 198.328 328.466 199.43C302.862 203.503 273.84 208.12 240.624 207.258C223.117 206.804 205.234 205.561 187.941 204.36C168.287 202.996 147.965 201.584 128.698 201.392C109.379 201.201 91.322 202.745 75.0412 205.987C16.8049 217.574 -29.3612 243.239 -48.4508 274.636L-48.9923 274.306C-44.0345 266.149 -37.2773 258.316 -28.9099 251.024C-20.833 243.983 -11.2162 237.412 -0.324776 231.49C20.8321 219.984 46.8509 210.948 74.9171 205.364C91.243 202.117 109.34 200.566 128.703 200.758C147.987 200.95 168.321 202.362 187.983 203.729C205.271 204.93 223.145 206.173 240.638 206.627C273.795 207.486 302.786 202.875 328.362 198.807C335.3 197.703 341.854 196.662 348.303 195.749C355.137 194.799 362.001 193.957 368.71 193.238C401.475 189.782 426.681 189.523 450.444 192.401C484.67 196.544 518.213 204.552 550.145 216.204C597.84 233.607 643.978 260.624 704.419 306.538C734.792 329.612 768.702 357.66 814.363 397.483C838.366 418.471 858.891 434.538 878.962 448.05C929.068 481.784 982.233 504.455 1036.98 515.431C1055.92 519.236 1075.64 521.979 1095.58 523.586C1119.87 525.48 1143.79 525.722 1166.69 524.304C1203.8 522.001 1243.53 517.523 1282.64 500.461C1302.46 491.813 1320.01 479.862 1336.28 463.931C1364.44 436.356 1384.87 401.584 1404.62 367.957C1415.49 349.438 1425.77 331.946 1436.83 316.55C1439.73 312.516 1442.67 308.373 1445.51 304.365C1457.01 288.143 1468.9 271.372 1482.3 256.055C1497.15 238.996 1512.71 225.503 1528.55 215.948C1547.12 204.755 1565.67 199.289 1583.69 199.693C1594.68 199.941 1605.8 201.871 1617.68 205.592C1648.3 215.184 1677.72 236.443 1706.17 257.005C1707.48 257.946 1708.78 258.888 1710.08 259.824C1737.43 279.566 1763.78 302.809 1788.39 328.907C1839.41 382.874 1885.39 451.388 1925.05 532.546L1924.49 532.814Z" fill="#A1A1A1"/>
<path d="M1180.76 524.64C1179.18 524.64 1177.62 524.637 1176.08 524.628C1153.28 524.533 1129.34 522.757 1104.93 519.346C1085.03 516.513 1065.41 512.604 1046.62 507.73C1019.77 500.779 992.827 490.79 966.529 478.041C941.134 465.729 915.558 450.463 890.509 432.663C865.965 415.224 843.04 395.792 825.809 380.81C785.492 345.853 747.132 316.634 711.796 293.964C654.563 257.247 603.561 234.864 551.284 223.524C519.746 216.684 485.909 213.076 453.331 213.076C452.826 213.076 452.324 213.076 451.819 213.078C423.832 213.174 397.26 218.372 372.719 223.975C366.332 225.444 359.724 227.048 353.08 228.748C349.439 229.689 345.793 230.659 341.935 231.685C314.723 238.931 283.879 247.142 246.407 246.469C223.587 246.057 200.278 243.695 177.736 241.409C163.182 239.932 148.133 238.407 133.779 237.485C114.046 236.22 95.8869 236.626 79.8007 238.697C21.8746 246.15 -26.4432 266.174 -49.4529 292.264L-49.9831 291.799C-38.1807 278.418 -20.4278 266.834 2.78213 257.363C24.9486 248.321 51.5511 241.623 79.7104 238.001C95.8389 235.927 114.046 235.515 133.824 236.786C148.192 237.708 163.249 239.236 177.81 240.713C200.337 242.999 223.632 245.361 246.421 245.77C283.797 246.443 314.587 238.244 341.754 231.011C345.615 229.982 349.261 229.012 352.905 228.071C359.555 226.371 366.168 224.765 372.561 223.296C397.145 217.684 423.762 212.478 451.816 212.379C484.914 212.264 519.357 215.883 551.433 222.842C578.413 228.697 604.57 237.314 631.393 249.186C657.226 260.621 683.651 275.076 712.174 293.377C747.538 316.065 785.927 345.306 826.269 380.286C843.486 395.259 866.394 414.677 890.913 432.096C941.74 468.215 994.187 493.434 1046.79 507.057C1065.56 511.925 1085.15 515.828 1105.02 518.658C1129.41 522.063 1153.31 523.839 1176.08 523.932C1211.71 524.079 1253.09 522.878 1293.44 506.628C1313.86 498.403 1331.53 486.376 1347.45 469.861C1375.42 440.857 1393.96 403.63 1411.89 367.627C1421.12 349.108 1429.83 331.616 1439.3 316.474C1442.34 311.623 1445.4 306.625 1448.36 301.791C1458.37 285.46 1468.71 268.576 1480.63 252.969C1494.25 235.013 1508.87 220.449 1524.07 209.682C1541.7 197.198 1559.67 190.213 1577.49 188.922C1588.48 188.125 1599.64 188.939 1611.6 191.414C1643.59 198.027 1675.29 217.239 1707.65 238.032C1735.87 256.162 1763.96 279.261 1788.87 304.835C1816.55 333.16 1842.55 366.39 1866.16 403.599C1887.19 436.75 1906.46 473.241 1923.42 512.06L1922.78 512.342C1886.35 428.976 1841.13 359.326 1788.37 305.329C1763.49 279.791 1735.45 256.726 1707.27 238.627C1674.96 217.87 1643.33 198.695 1611.46 192.105C1599.56 189.644 1588.47 188.835 1577.54 189.627C1544.8 192.003 1510.59 214.648 1481.19 253.397C1469.3 268.976 1458.96 285.846 1448.96 302.16C1446 306.997 1442.94 311.998 1439.9 316.849C1430.45 331.962 1421.74 349.441 1412.53 367.943C1403.73 385.608 1394.63 403.876 1384.19 421.436C1372.35 441.344 1360.51 457.343 1347.96 470.352C1331.97 486.94 1314.22 499.021 1293.7 507.285C1275.61 514.574 1256.15 519.391 1234.24 522.018C1215.68 524.231 1197.04 524.64 1180.76 524.64Z" fill="#A1A1A1"/>
<path d="M1225.99 526.052C1211.61 526.052 1197.79 525.195 1185.43 524.327C1162.71 522.732 1138.78 519.42 1114.31 514.481C1094.49 510.425 1075 505.357 1056.37 499.413C1005.36 483.168 954.99 456.129 902.397 416.754C879.461 399.586 857.839 381.112 837.663 363.664C797.831 329.319 758.095 301.47 719.552 280.888C662.867 250.618 609.831 234.526 552.644 230.247C520.059 227.809 485.699 228.804 453.272 233.122C426.131 236.736 400.544 245.457 376.657 254.076C370.681 256.244 364.325 258.612 357.768 261.112C356.129 261.74 354.477 262.38 352.801 263.026C325.291 273.658 294.162 285.688 254.211 285.688C253.537 285.688 252.866 285.685 252.186 285.677C225.158 285.403 197.563 281.547 170.873 277.815C160.292 276.336 149.349 274.808 138.85 273.57C118.342 271.158 100.58 270.445 84.5477 271.397C26.2352 274.864 -22.985 288.89 -50.4872 309.886L-50.9582 309.269C-37.3622 298.891 -17.7028 289.879 5.8878 283.21C29.0921 276.651 56.2756 272.299 84.4998 270.622C100.577 269.667 118.384 270.38 138.937 272.798C149.448 274.036 160.393 275.566 170.977 277.043C197.642 280.769 225.212 284.623 252.189 284.896C292.972 285.313 324.608 273.083 352.517 262.296C354.189 261.65 355.844 261.01 357.483 260.379C364.045 257.876 370.405 255.508 376.386 253.341C400.313 244.704 425.948 235.972 453.162 232.347C485.639 228.023 520.057 227.025 552.694 229.466C581.034 231.586 608.054 236.592 635.297 244.766C663.355 253.186 691.032 264.773 719.91 280.197C758.501 300.807 798.288 328.69 838.162 363.07C858.329 380.512 879.937 398.974 902.854 416.126C955.377 455.447 1005.67 482.447 1056.6 498.666C1075.2 504.599 1094.67 509.661 1114.45 513.712C1138.89 518.644 1162.79 521.954 1185.48 523.543C1223.66 526.221 1264.27 527.597 1304.23 512.779C1325.25 504.979 1343.05 492.876 1358.62 475.775C1386.36 445.313 1403.63 403.763 1418.87 367.103C1426.54 348.658 1433.78 331.235 1441.77 316.384C1444.65 311.025 1447.55 305.486 1450.36 300.131C1459.13 283.374 1468.21 266.047 1478.95 249.865C1491.38 231.014 1505.05 215.379 1519.59 203.393C1536.28 189.63 1553.67 181.129 1571.27 178.132C1582.28 176.258 1593.48 175.959 1605.51 177.211C1639.14 180.714 1673.31 198.027 1705.22 216.216C1734.69 233.009 1763.78 255.322 1789.35 280.741C1817.8 308.934 1844.01 342.496 1867.26 380.489C1888.04 414.466 1906.39 451.83 1921.79 491.551L1921.07 491.83C1888.33 407.399 1842.6 334.595 1788.81 281.288C1763.29 255.917 1734.25 233.646 1704.84 216.887C1673.01 198.74 1638.93 181.47 1605.44 177.98C1593.47 176.734 1582.34 177.033 1571.41 178.893C1538.91 184.427 1506.31 209.781 1479.6 250.288C1468.88 266.436 1459.82 283.746 1451.05 300.486C1448.24 305.844 1445.34 311.383 1442.46 316.747C1434.48 331.565 1427.25 348.97 1419.59 367.396C1404.33 404.113 1387.03 445.73 1359.2 476.294C1343.53 493.488 1325.64 505.659 1304.5 513.503C1286.15 520.307 1266.36 524.248 1243.99 525.542C1237.94 525.908 1231.92 526.052 1225.99 526.052Z" fill="#A1A1A1"/>
<path d="M1254.37 529.104C1254.16 529.104 1253.96 529.104 1253.76 529.104C1233.43 529.054 1213.48 526.567 1194.78 524.025C1172.09 520.941 1148.18 516.09 1123.69 509.613C1103.97 504.339 1084.6 498.107 1066.12 491.094C1017.15 472.528 968.905 443.853 914.292 400.848C894.625 385.365 875.27 368.693 856.549 352.572C854.209 350.554 851.865 348.539 849.522 346.524C809.484 312.186 768.369 285.705 727.321 267.817C671.113 243.326 614.425 233.235 554.017 236.969C520.894 239.019 486.564 244.619 454.739 253.166C429.628 259.911 407.253 270.732 380.608 284.177C375.207 286.914 369.44 289.868 362.463 293.476L362.074 293.679C348.613 300.686 333.356 308.626 316.243 314.664C296.59 321.598 277.523 324.935 257.97 324.896C227.482 324.82 196.367 319.148 166.279 313.66C158.907 312.316 151.281 310.926 143.92 309.669C122.811 306.07 104.943 304.252 89.2938 304.114C31.6723 303.606 -19.6602 312.141 -51.5393 327.526L-51.9059 326.765C-36.2907 319.227 -15.2269 313.111 9.00669 309.074C33.2855 305.03 61.0528 303.023 89.3023 303.271C104.997 303.409 122.91 305.23 144.064 308.838C151.43 310.095 159.056 311.484 166.431 312.829C196.482 318.308 227.558 323.974 257.973 324.05C258.109 324.05 258.247 324.05 258.382 324.05C301.889 324.05 335.034 306.8 361.685 292.929L362.077 292.726C369.057 289.115 374.824 286.161 380.227 283.424C406.917 269.957 429.332 259.116 454.522 252.351C486.401 243.788 520.787 238.179 553.966 236.127C583.527 234.3 611.41 235.693 639.214 240.389C669.175 245.448 698.107 254.166 727.66 267.045C768.786 284.966 809.972 311.49 850.074 345.884C852.418 347.899 854.762 349.917 857.102 351.935C875.814 368.05 895.163 384.717 914.814 400.189C969.356 443.14 1017.53 471.775 1066.42 490.311C1084.87 497.315 1104.21 503.536 1123.91 508.804C1148.36 515.273 1172.24 520.116 1194.9 523.194C1235.47 528.712 1275.19 532.54 1315.04 518.965C1336.66 511.597 1354.58 499.418 1369.8 481.728C1397.3 449.772 1412.32 405.493 1425.57 366.424C1431.77 348.133 1437.64 330.854 1444.25 316.335C1446.79 310.749 1449.34 304.97 1451.81 299.381C1459.53 281.905 1467.5 263.837 1477.29 246.801C1488.55 227.045 1501.27 210.336 1515.11 197.139C1530.88 182.098 1547.69 172.086 1565.07 167.384C1575.85 164.47 1586.84 163.049 1598.66 163.049C1598.91 163.049 1599.17 163.049 1599.43 163.052C1636.17 163.244 1673.97 179.925 1702.8 194.435C1733.52 209.896 1763.62 231.419 1789.85 256.681C1819.07 284.743 1845.49 318.635 1868.36 357.418C1888.89 392.22 1906.32 430.461 1920.17 471.084L1919.37 471.358C1898.77 410.914 1859.47 324.713 1789.26 257.292C1763.09 232.088 1733.06 210.615 1702.42 195.191C1673.67 180.72 1635.99 164.087 1599.43 163.898C1587.39 163.827 1576.23 165.242 1565.29 168.202C1533.09 176.914 1502.1 204.977 1478.02 247.221C1468.26 264.218 1460.29 282.266 1452.58 299.722C1450.11 305.314 1447.56 311.095 1445.02 316.685C1438.42 331.167 1432.57 348.423 1426.37 366.694C1413.09 405.835 1398.05 450.198 1370.44 482.277C1355.12 500.086 1337.09 512.347 1315.31 519.763C1296.86 526.046 1276.92 529.104 1254.37 529.104Z" fill="#A1A1A1"/>
<path d="M1276.94 533.074C1272.56 533.074 1268.09 532.933 1263.51 532.651C1243.46 531.419 1223.98 527.724 1204.13 523.721C1181.11 519.082 1157.87 512.875 1133.07 504.746C1113.45 498.257 1094.2 490.867 1075.88 482.774C1029.38 462.277 983.214 432.102 926.188 384.94C912.025 373.228 897.867 360.945 884.176 349.064C876.722 342.598 869.017 335.909 861.383 329.378C820.869 294.81 778.38 269.701 735.096 254.745C677.906 234.983 619.128 231.364 555.398 243.681C521.728 250.19 487.43 260.396 456.213 273.196C431.136 283.478 409.291 297.919 386.163 313.207L384.564 314.264C380.952 316.66 377.3 319.09 373.602 321.548C371.473 322.966 369.33 324.392 367.167 325.829C353.681 334.841 339.115 344.241 322.411 351.477C303.017 359.876 283.834 364.009 263.76 364.11C230.341 364.273 196.254 356.511 163.292 348.996C158.588 347.922 153.72 346.815 148.996 345.763C126.85 340.83 109.39 337.992 94.0426 336.825C37.4082 332.521 -16.0395 335.554 -52.6001 345.149L-52.8342 344.264C-16.1777 334.643 37.38 331.599 94.1131 335.912C109.503 337.082 127.007 339.928 149.197 344.87C153.923 345.924 158.791 347.032 163.498 348.105C196.056 355.527 229.712 363.197 262.688 363.197C263.044 363.197 263.399 363.197 263.757 363.194C306.409 362.98 336.771 345.036 366.662 325.068C368.825 323.631 370.968 322.205 373.098 320.787C376.795 318.326 380.444 315.899 384.06 313.5L385.659 312.443C408.826 297.129 430.708 282.664 455.866 272.347C487.139 259.522 521.497 249.299 555.226 242.779C619.117 230.431 678.053 234.061 735.398 253.877C778.789 268.872 821.376 294.037 861.981 328.682C869.615 335.216 877.323 341.902 884.776 348.37C898.462 360.248 912.617 372.529 926.771 384.233C983.73 431.341 1029.83 461.473 1076.25 481.937C1094.55 490.015 1113.76 497.397 1133.36 503.875C1158.12 511.993 1181.33 518.191 1204.31 522.822C1239.2 529.855 1282.61 538.61 1325.85 525.125C1348.08 518.194 1366.11 505.938 1380.98 487.656C1408.21 454.17 1420.83 407.073 1431.97 365.522C1436.81 347.471 1441.39 330.421 1446.72 316.271C1448.8 310.758 1450.88 305.056 1452.9 299.539C1459.65 281.04 1466.64 261.913 1475.62 243.721C1485.74 223.046 1497.52 205.263 1510.63 190.865C1525.49 174.55 1541.71 163.03 1558.86 156.623C1569.86 152.511 1581.14 149.977 1593.34 148.875C1609.67 147.398 1627.06 148.976 1646.49 153.689C1662.93 157.68 1680.56 163.876 1700.38 172.633C1732.34 186.758 1763.45 207.495 1790.34 232.601C1820.34 260.532 1846.96 294.759 1869.47 334.328C1889.73 369.959 1906.25 409.077 1918.54 450.599L1917.66 450.858C1891.7 363.197 1846.26 285.922 1789.71 233.272C1762.9 208.234 1731.88 187.556 1700.01 173.473C1657.3 154.605 1623.44 147.076 1593.42 149.788C1581.31 150.882 1570.11 153.399 1559.18 157.48C1518.38 172.721 1491.67 213.011 1476.44 244.124C1467.49 262.271 1460.51 281.376 1453.76 299.852C1451.74 305.371 1449.66 311.076 1447.58 316.592C1442.26 330.7 1437.69 347.731 1432.86 365.759C1421.7 407.399 1409.04 454.596 1381.69 488.234C1366.7 506.66 1348.53 519.014 1326.12 526.002C1310.93 530.737 1294.74 533.074 1276.94 533.074Z" fill="#A1A1A1"/>
<path d="M1296.49 537.623C1266.67 537.623 1238 529.964 1213.47 523.414C1190.39 517.252 1167.16 509.551 1142.44 499.875C1122.93 492.18 1103.81 483.628 1085.62 474.453C1031.1 446.982 982.484 407.551 938.078 369.031C929.011 361.167 919.851 353.06 910.996 345.222C898.7 334.336 885.984 323.081 873.242 312.234C832.122 277.325 788.26 253.583 742.878 241.668C684.17 226.259 623.297 229.108 556.781 250.384C522.533 261.337 488.268 276.15 457.689 293.22C434.104 306.383 414.148 323.002 393.023 340.596C391.525 341.842 390.025 343.093 388.516 344.345L387.698 345.027C382.563 349.309 377.252 353.734 371.869 358.176C358.969 368.868 344.764 379.925 328.334 388.373C309.261 398.179 290.033 403.07 269.545 403.323C233.582 403.771 196.928 393.666 161.485 383.894C159 383.209 156.527 382.527 154.065 381.853C130.691 375.444 113.641 371.644 98.784 369.53C43.5709 361.677 -11.9975 359.208 -53.6738 362.757L-53.7584 361.773C-12.0144 358.216 43.6358 360.688 98.9222 368.552C113.821 370.672 130.908 374.48 154.324 380.901C156.786 381.574 159.26 382.256 161.747 382.944C197.123 392.697 233.706 402.776 269.531 402.337C314.024 401.784 345.359 378.86 371.237 357.415C376.621 352.973 381.931 348.548 387.066 344.269L387.884 343.587C389.393 342.332 390.893 341.084 392.391 339.838C413.553 322.213 433.543 305.565 457.207 292.357C487.842 275.256 522.172 260.418 556.479 249.445C588.014 239.36 617.634 233.537 647.029 231.642C679.819 229.531 712.149 232.584 743.126 240.716C788.652 252.667 832.643 276.477 873.88 311.482C886.63 322.334 899.349 333.592 911.647 344.48C920.503 352.319 929.657 360.423 938.721 368.284C983.082 406.762 1031.63 446.15 1086.06 473.571C1104.23 482.731 1123.32 491.272 1142.8 498.956C1167.48 508.618 1190.68 516.308 1213.72 522.461C1249.1 531.909 1293.14 543.669 1336.65 531.295C1359.48 524.8 1377.63 512.469 1392.14 493.595C1419.09 458.533 1429.17 408.538 1438.07 364.425C1441.65 346.701 1445.02 329.961 1449.18 316.214C1450.72 311.129 1452.27 305.875 1453.76 300.793C1459.61 280.916 1465.66 260.359 1473.93 240.648C1482.93 219.037 1493.77 200.175 1506.13 184.59C1520.08 167.004 1535.72 153.976 1552.63 145.867C1563.61 140.601 1574.93 136.951 1587.23 134.705C1603.8 131.68 1622.19 131.782 1641.88 135.006C1659.13 137.831 1677.99 143.155 1697.93 150.836C1731.14 163.625 1763.26 183.572 1790.81 208.523C1821.59 236.324 1848.42 270.881 1870.56 311.239C1890.56 347.699 1906.15 387.696 1916.91 430.118L1915.95 430.36C1893.17 340.472 1848.49 261.949 1790.15 209.256C1762.69 184.387 1730.68 164.504 1697.58 151.758C1654.68 135.238 1618.64 129.975 1587.41 135.677C1575.2 137.907 1563.96 141.532 1553.06 146.758C1512.83 166.051 1488.32 208.67 1474.84 241.029C1466.59 260.689 1460.55 281.218 1454.71 301.07C1453.22 306.152 1451.67 311.409 1450.13 316.499C1445.98 330.201 1442.61 346.918 1439.04 364.62C1434.76 385.842 1429.91 409.894 1422.86 432.443C1414.8 458.279 1405 478.478 1392.92 494.195C1385.94 503.282 1377.91 511.017 1369.06 517.184C1359.55 523.817 1348.73 528.885 1336.92 532.244C1323.4 536.092 1309.83 537.623 1296.49 537.623Z" fill="#A1A1A1"/>
<path d="M1314.12 542.614C1304.26 542.614 1293.93 541.656 1283.02 539.742C1261.53 535.973 1240.96 529.135 1222.81 523.106C1199.93 515.504 1176.05 506.047 1151.82 495.001C1132.43 486.111 1113.43 476.398 1095.37 466.126C1043.51 436.679 998.841 397.525 949.967 353.119C945.624 349.173 941.213 345.148 936.949 341.253C920.155 325.922 902.792 310.069 885.101 295.091C843.297 259.773 798.065 237.401 750.658 228.595C690.859 217.487 626.092 227.07 558.162 257.084C523.305 272.485 489.071 291.9 459.163 313.235C436.644 329.299 418.108 348.237 398.482 368.29C396.488 370.327 394.486 372.371 392.472 374.423C387.461 379.536 382.063 385.024 376.572 390.518C365.057 402.077 351.024 415.249 334.259 425.264C315.49 436.477 296.215 442.128 275.334 442.537C237.11 443.289 198.2 430.639 160.57 418.406L159.138 417.941C140.714 411.954 121.224 405.905 103.53 402.232C49.5972 391.039 -6.61145 383.268 -54.7375 380.351L-54.6726 379.297C-6.49583 382.217 49.7636 389.993 103.744 401.198C121.489 404.882 141.013 410.939 159.465 416.935L160.898 417.4C198.445 429.605 237.276 442.224 275.314 441.477C319.244 440.614 349.583 416.114 375.825 389.765C381.316 384.274 386.708 378.786 391.719 373.676C393.733 371.627 395.735 369.581 397.729 367.545C417.388 347.459 435.959 328.487 458.551 312.37C488.516 290.993 522.814 271.541 557.737 256.111C589.607 242.032 620.97 232.33 650.948 227.279C685.202 221.509 718.816 221.599 750.855 227.549C798.443 236.389 843.842 258.84 885.786 294.279C903.491 309.272 920.863 325.13 937.666 340.469C941.93 344.362 946.341 348.387 950.684 352.333C999.509 396.696 1044.14 435.808 1095.9 465.205C1113.94 475.459 1132.9 485.158 1152.26 494.037C1176.46 505.067 1200.3 514.509 1223.15 522.1C1258.96 534 1303.52 548.807 1347.46 537.462C1370.9 531.41 1389.17 519.005 1403.32 499.533C1429.97 462.848 1437.68 407.554 1443.88 363.123C1446.3 345.816 1448.57 329.471 1451.67 316.166C1452.64 311.972 1453.62 307.651 1454.57 303.471C1459.51 281.756 1464.62 259.299 1472.27 237.584C1484.1 203.791 1506.56 158.585 1546.42 135.125C1557.43 128.647 1568.79 123.878 1581.14 120.546C1613.46 111.704 1651.94 114.565 1695.51 129.045C1729.96 140.497 1763.09 159.656 1791.3 184.452C1822.86 212.12 1849.9 247.01 1871.67 288.16C1881.66 307.034 1890.48 327.193 1897.9 348.077C1904.99 368.025 1910.84 388.739 1915.29 409.645L1914.25 409.865C1894.66 317.745 1850.75 237.973 1790.6 185.244C1762.49 160.541 1729.5 141.455 1695.17 130.045C1651.81 115.631 1613.53 112.778 1581.42 121.564C1569.15 124.87 1557.88 129.603 1546.96 136.032C1507.37 159.329 1485.04 204.304 1473.27 237.931C1465.63 259.59 1460.53 282.015 1455.6 303.702C1454.65 307.882 1453.67 312.206 1452.69 316.403C1449.62 329.662 1447.34 345.985 1444.93 363.267C1441.81 385.625 1438.28 410.965 1432.23 434.881C1425.29 462.363 1416.11 483.715 1404.17 500.154C1397.36 509.531 1389.39 517.441 1380.49 523.659C1370.9 530.359 1359.87 535.348 1347.73 538.482C1337.06 541.239 1325.93 542.614 1314.12 542.614Z" fill="#A1A1A1"/>
<path d="M1330.36 547.886C1318.55 547.886 1306.08 546.355 1292.77 543.286C1271.2 538.316 1250.45 530.069 1232.15 522.791C1209.1 513.63 1185.22 502.64 1161.19 490.122C1141.93 480.045 1123.06 469.171 1105.11 457.798C1055.73 426.524 1013.37 386.217 968.523 343.548C966.303 341.436 964.084 339.322 961.859 337.208C941.004 317.387 919.441 296.89 896.961 277.948C854.43 242.182 807.827 221.177 758.446 215.517C696.42 208.405 629.5 224.644 559.543 263.776C524.55 283.349 489.425 308.021 460.637 333.245C438.899 352.291 421.465 373.722 403.007 396.412C400.822 399.098 398.63 401.793 396.422 404.493C392.011 409.897 386.763 416.304 381.269 422.857C371.094 435.025 357.23 450.489 340.18 462.121C321.71 474.724 302.392 481.148 281.12 481.754C263.635 482.19 244.339 479.493 222.128 473.503C203.058 468.362 184.611 461.642 164.199 454.032C145.566 446.999 125.901 439.735 108.258 434.938C55.9978 420.726 0.795956 408.282 -55.8103 397.943L-55.6073 396.835C1.03284 407.177 56.2657 419.632 108.554 433.85C126.245 438.661 145.938 445.936 164.594 452.975C198.808 465.735 241.389 481.621 281.089 480.626C326.477 479.329 355.645 451.746 380.404 422.13C385.895 415.582 391.14 409.178 395.548 403.777C397.756 401.077 399.947 398.382 402.13 395.699C420.619 372.972 438.084 351.505 459.893 332.397C488.74 307.122 523.933 282.402 558.993 262.792C629.162 223.542 696.312 207.261 758.576 214.398C782.449 217.135 805.898 223.491 828.268 233.289C852.27 243.8 875.627 258.539 897.689 277.088C920.194 296.05 941.771 316.559 962.637 336.394C964.862 338.51 967.084 340.622 969.304 342.733C1014.11 385.366 1056.43 425.633 1105.72 456.848C1123.64 468.204 1142.48 479.065 1161.71 489.124C1185.71 501.623 1209.55 512.598 1232.57 521.745C1268.74 536.12 1313.76 554.011 1358.27 543.635C1382.38 538.015 1400.77 525.533 1414.48 505.481C1440.9 467.181 1445.6 408.673 1449.39 361.663C1450.74 344.85 1452.02 328.969 1454.13 316.127C1454.57 313.478 1455.01 310.814 1455.45 308.136C1459.4 283.949 1463.49 258.936 1470.6 234.526C1480.75 199.417 1501.06 151.809 1540.2 124.389C1551.12 116.739 1562.51 110.853 1575.03 106.394C1592.44 100.139 1611.83 97.1995 1632.68 97.6505C1651.71 98.062 1672.03 101.295 1693.07 107.257C1728.76 117.367 1762.9 135.737 1791.78 160.378C1824.12 187.911 1851.37 223.139 1872.76 265.078C1882.58 284.321 1891.09 304.895 1898.04 326.227C1904.69 346.656 1909.95 367.836 1913.65 389.176L1912.54 389.368C1896.4 296.377 1852.11 213.225 1791.05 161.235C1762.29 136.701 1728.3 118.407 1692.76 108.336C1648.93 95.917 1608.35 95.6126 1575.41 107.451C1562.98 111.876 1551.68 117.717 1540.84 125.307C1501.97 152.539 1481.78 199.901 1471.68 234.836C1464.59 259.181 1460.51 284.158 1456.56 308.314C1456.12 310.992 1455.68 313.658 1455.25 316.308C1453.13 329.102 1451.86 344.962 1450.51 361.751C1446.71 408.896 1442 467.573 1415.41 506.118C1408.8 515.784 1400.9 523.873 1391.92 530.156C1382.26 536.915 1371.02 541.82 1358.53 544.734C1349.5 546.832 1340.16 547.886 1330.36 547.886Z" fill="#A1A1A1"/>
<path d="M1345.63 553.374C1332.16 553.374 1317.9 551.198 1302.53 546.829C1280.78 540.647 1259.9 530.993 1241.48 522.478C1218.2 511.716 1194.34 499.187 1170.56 485.246C1151.43 473.999 1132.69 461.961 1114.85 449.471C1070.92 418.725 1033.38 381.059 993.629 341.18C987.131 334.66 980.41 327.921 973.744 321.294C950.308 298.012 930.296 278.814 908.815 260.805C865.526 224.565 817.555 204.927 766.231 202.435C701.739 199.304 632.659 222.192 560.914 270.462C525.273 294.443 490.179 323.842 462.099 353.247C440.945 375.399 424.407 399.513 406.9 425.042C404.731 428.204 402.554 431.378 400.363 434.555C396.46 440.223 391.293 447.693 385.96 455.182C363.517 486.774 334.196 519.299 286.899 520.962C285.424 521.01 283.944 521.032 282.466 521.032C245.533 521.032 207.828 506.423 169.253 490.111L166.845 489.085C147.738 480.933 129.689 473.236 112.983 467.632C50.0227 446.514 -10.8674 428.689 -56.8812 415.52L-56.5512 414.367C-10.5262 427.542 50.3808 445.37 113.363 466.496C130.115 472.114 148.184 479.823 167.316 487.983L169.722 489.009C209.709 505.918 248.759 521.001 286.857 519.767C333.629 518.12 362.705 485.846 384.982 454.491C390.312 447.008 395.473 439.544 399.376 433.878C401.567 430.699 403.741 427.528 405.91 424.365C423.446 398.797 440.009 374.643 461.23 352.421C489.367 322.954 524.532 293.496 560.243 269.467C593.389 247.165 626.545 230.042 658.791 218.567C695.789 205.401 731.957 199.572 766.287 201.237C817.876 203.74 866.09 223.474 909.582 259.883C931.094 277.92 951.126 297.138 974.584 320.44C981.254 327.067 987.974 333.809 994.475 340.329C1034.19 380.168 1071.69 417.798 1115.54 448.482C1133.35 460.957 1152.07 472.976 1171.16 484.206C1194.91 498.13 1218.73 510.64 1241.98 521.385C1278.46 538.254 1323.88 559.248 1369.07 549.797C1393.78 544.63 1412.28 532.076 1425.64 511.418C1451.73 471.372 1453.29 409.573 1454.56 359.916C1454.97 343.714 1455.36 328.408 1456.6 316.077L1456.63 315.795C1459.42 288.18 1462.3 259.627 1468.92 231.454C1474.64 206.881 1482.62 184.788 1492.62 165.784C1503.91 144.359 1517.81 126.816 1533.97 113.638C1544.78 104.821 1556.21 97.8169 1568.92 92.2274C1603.26 77.0375 1645.34 74.6923 1690.62 85.4513C1708.84 89.7808 1726.81 96.3399 1744.04 104.943C1761.37 113.596 1777.59 124.146 1792.26 136.295C1825.38 163.695 1852.84 199.256 1873.86 241.99C1892.76 280.4 1905.96 324.217 1912.02 368.699L1910.84 368.859C1897.86 273.655 1854.36 189.224 1791.49 137.217C1762.09 112.857 1727.11 95.359 1690.34 86.6238C1645.33 75.9269 1603.51 78.2467 1569.41 93.3323C1556.79 98.8795 1545.46 105.828 1534.73 114.574C1504.57 139.178 1482.22 179.691 1470.09 231.733C1463.49 259.832 1460.61 288.346 1457.82 315.922L1457.8 316.203C1456.55 328.49 1456.17 343.773 1455.75 359.952C1454.49 409.762 1452.91 471.747 1426.65 512.074C1420.21 522.036 1412.36 530.3 1403.33 536.636C1393.59 543.469 1382.15 548.292 1369.32 550.978C1361.67 552.573 1353.8 553.374 1345.63 553.374Z" fill="#A1A1A1"/>
<path d="M287.777 560.277C271.262 560.277 253.278 557.061 232.981 550.493C212.814 543.968 192.87 534.959 174.319 526.199C170.96 524.603 167.627 523.011 164.316 521.43C147.835 513.557 132.268 506.121 117.718 500.329C59.7048 477.241 4.40717 456.49 -49.0715 436.426L-57.9325 433.1L-57.4869 431.914L-48.626 435.24C4.85556 455.309 60.1617 476.06 118.187 499.153C132.775 504.96 148.362 512.404 164.863 520.288C168.171 521.869 171.504 523.462 174.86 525.054C212.941 543.038 253.399 560.466 292.639 558.913C340.875 556.906 369.781 519.349 389.573 486.858C394.644 478.549 399.529 470.268 403.217 463.982C405.253 460.518 407.276 457.056 409.292 453.603C426.015 424.98 441.811 397.943 462.584 372.45C490.005 338.807 525.136 304.605 561.51 276.15C595.256 249.75 629.31 228.892 662.729 214.156C701.06 197.252 738.501 188.48 774.009 188.083C827.44 187.288 877.066 205.66 921.489 242.684C946.115 263.232 968.194 285.46 986.548 304.495C996.534 314.853 1006.52 325.471 1016.18 335.74C1050.37 372.092 1085.72 409.68 1125.37 440.124C1143.08 453.727 1161.67 466.908 1180.62 479.296C1204.07 494.593 1227.88 508.636 1251.4 521.032C1288.17 540.408 1333.92 564.522 1379.88 555.964C1405.18 551.254 1423.81 538.626 1436.81 517.359C1462.55 475.499 1460.81 410.314 1459.42 357.937C1459 342.448 1458.61 327.816 1459.08 316.037C1460.14 289.482 1461.73 258.62 1467.25 228.393C1471.9 202.779 1478.93 179.607 1488.12 159.521C1498.53 136.799 1511.86 117.751 1527.75 102.902C1538.28 93.0617 1550.08 84.7099 1562.82 78.0747C1581 68.5757 1601.4 62.6029 1623.45 60.3254C1644.11 58.1917 1665.89 59.3135 1688.18 63.6571C1706.98 67.3214 1725.51 73.3478 1743.26 81.5727C1761.12 89.8484 1777.77 100.159 1792.74 112.218C1810.01 126.102 1825.88 142.499 1839.92 160.953C1853.23 178.437 1865.02 197.937 1874.97 218.908C1893.59 258.141 1905.84 302.863 1910.4 348.229L1909.13 348.356C1899.35 250.934 1856.63 165.226 1791.95 113.207C1762.32 89.3551 1725.38 72.2006 1687.94 64.903C1641.63 55.8804 1598.57 60.8244 1563.41 79.1994C1550.77 85.7811 1539.07 94.068 1528.62 103.829C1498.68 131.807 1478.45 173.792 1468.5 228.621C1462.99 258.767 1461.4 289.575 1460.35 316.088C1459.88 327.825 1460.27 342.434 1460.68 357.903C1461.37 383.742 1462.15 413.031 1459.54 441.345C1456.5 474.2 1449.42 499.28 1437.9 518.022C1431.63 528.276 1423.84 536.718 1414.75 543.111C1404.94 550.017 1393.28 554.761 1380.12 557.21C1373.48 558.447 1366.84 559.008 1360.24 559.008C1320.74 559.008 1282.46 538.832 1250.81 522.151C1227.26 509.735 1203.41 495.672 1179.93 480.353C1160.95 467.948 1142.34 454.748 1124.6 441.125C1084.87 410.618 1049.48 372.992 1015.26 336.605C1005.6 326.34 995.617 315.724 985.637 305.371C967.309 286.359 945.261 264.162 920.68 243.653C876.497 206.827 827.161 188.562 774.029 189.345C690.589 190.281 612.831 237.604 562.294 277.142C525.993 305.54 490.933 339.669 463.572 373.245C442.86 398.661 427.087 425.656 410.389 454.235C408.373 457.688 406.348 461.149 404.312 464.616C400.62 470.905 395.733 479.191 390.659 487.509C382.351 501.149 369.308 521.004 352.031 535.887C343.641 543.114 334.713 548.793 325.494 552.771C315.214 557.204 304.176 559.696 292.692 560.172C291.065 560.243 289.427 560.277 287.777 560.277Z" fill="#A1A1A1"/>
<path d="M293.079 599.518C276.544 599.518 258.596 596.054 238.407 588.985C217.504 581.667 196.838 571.379 179.381 562.278C174.017 559.476 168.664 556.635 163.486 553.886C149.013 546.205 135.341 538.947 122.45 533.022C76.1574 511.741 30.1662 490.965 -14.3133 470.87C-29.0261 464.224 -44.2381 457.352 -58.9819 450.677L-58.4291 449.457C-43.6853 456.131 -28.4734 463.003 -13.7606 469.65C30.719 489.744 76.7158 510.524 123.012 531.808C135.936 537.749 149.625 545.013 164.115 552.705C169.29 555.454 174.643 558.292 180.001 561.094C216.207 579.962 258.202 599.935 298.414 598.055C347.787 595.693 375.517 554.684 394.164 519.222C398.945 510.138 403.567 501.016 407.058 494.085C408.852 490.528 410.634 486.974 412.414 483.428C428.41 451.534 443.517 421.411 463.941 392.483C490.504 354.859 525.606 315.918 562.776 282.835C614.54 236.961 694.545 181.005 781.728 174.936C837.172 170.973 888.203 187.981 933.396 225.492C953.701 242.353 973.781 261.802 998.508 288.56C1011 302.081 1023.4 316.096 1035.4 329.645C1066.6 364.899 1098.85 401.353 1135.2 431.781C1152.81 446.525 1171.27 460.864 1190.08 474.399C1212.85 490.773 1236.65 506.349 1260.83 520.696C1297.96 542.6 1344.17 569.866 1390.69 562.148C1416.2 558.005 1435.47 544.94 1447.98 523.321C1473.36 479.566 1467.92 407.983 1463.94 355.716C1462.82 341.047 1461.77 327.193 1461.56 316.017C1461.1 291.179 1461.14 258.428 1465.59 225.351C1473.26 168.033 1492.09 123.227 1521.54 92.1848C1531.86 81.2483 1543.7 71.7465 1556.72 63.9415C1575.24 52.8246 1596.14 45.3466 1618.84 41.7189C1640.23 38.3027 1662.73 38.3562 1685.74 41.8796C1705.15 44.9181 1724.23 50.4259 1742.47 58.2449C1760.88 66.1429 1777.96 76.2056 1793.23 88.1541C1810.88 101.96 1827 118.413 1841.15 137.058C1854.56 154.729 1866.31 174.505 1876.08 195.842C1894.41 235.901 1905.71 281.525 1908.77 327.779L1907.44 327.867C1900.85 228.22 1858.92 141.233 1792.4 89.2111C1762.24 65.6102 1724.29 49.2702 1685.54 43.2044C1637.76 35.8899 1593.45 43.4581 1557.41 65.0915C1544.5 72.8317 1532.76 82.2574 1522.52 93.1065C1493.26 123.943 1474.55 168.495 1466.92 225.531C1462.48 258.519 1462.44 291.204 1462.9 315.995C1463.11 327.131 1464.16 340.968 1465.28 355.617C1467.33 382.634 1469.66 413.259 1468.33 443.157C1466.78 477.971 1460.5 504.413 1449.14 523.994C1443.03 534.556 1435.31 543.181 1426.17 549.63C1416.27 556.623 1404.41 561.28 1390.92 563.473C1369.99 566.943 1347.47 563.825 1322.06 553.94C1299.98 545.346 1278.82 532.865 1260.15 521.855C1235.94 507.488 1212.1 491.889 1189.3 475.493C1170.47 461.938 1151.98 447.579 1134.34 432.815C1097.92 402.325 1065.62 365.832 1034.39 330.542C1022.41 316.995 1010.01 302.989 997.526 289.479C972.842 262.769 952.799 243.357 932.541 226.535C887.616 189.238 836.91 172.331 781.818 176.269C695.011 182.315 615.271 238.1 563.662 283.836C526.565 316.851 491.536 355.71 465.029 393.255C444.662 422.101 429.577 452.182 413.607 484.028C411.827 487.577 410.045 491.131 408.251 494.688C404.757 501.625 400.132 510.755 395.346 519.848C376.536 555.626 348.526 597.001 298.473 599.394C296.694 599.476 294.892 599.518 293.079 599.518Z" fill="#A1A1A1"/>
<path d="M298.487 638.763C253.308 638.763 205.904 611.03 163.881 586.443C150.967 578.889 138.77 571.752 127.179 565.717L-60.0312 468.255L-59.3798 467.006L127.831 564.468C139.453 570.517 151.664 577.662 164.595 585.228C208.242 610.765 257.716 639.71 304.19 637.202C354.651 634.482 381.234 590.02 398.755 551.592C404.486 539.024 410.019 526.235 415.372 513.867C430.011 480.043 445.147 445.066 465.291 412.512C481.287 386.665 501.158 359.558 522.755 334.125C546.447 306.222 571.814 280.623 598.146 258.04C627.18 233.142 656.701 212.546 685.887 196.826C718.169 179.441 749.972 168.09 780.419 163.087C841.41 153.066 896.883 168.273 945.291 208.29C985.521 241.542 1019.71 282.661 1052.78 322.427C1081.56 357.041 1111.32 392.83 1145.02 423.424C1183.95 458.759 1226.08 491.368 1270.25 520.341C1307.46 544.754 1353.77 575.14 1401.5 568.31C1441.81 562.543 1465.12 535.585 1472.75 485.891C1479.25 443.622 1473.07 393.481 1468.11 353.193C1466.42 339.463 1464.82 326.494 1464.04 315.978C1459.71 258.003 1462.47 210.145 1472.47 169.671C1478.7 144.418 1487.91 121.908 1499.82 102.767C1513.13 81.3839 1530.22 63.5585 1550.61 49.7864C1568.25 37.8718 1588.13 29.2184 1609.7 24.0658C1630.23 19.1613 1651.85 17.518 1673.96 19.1811C1717.43 22.4507 1759.96 38.3933 1793.7 64.0687C1811.73 77.7929 1828.11 94.3048 1842.37 113.142C1855.88 130.996 1867.59 151.051 1877.17 172.755C1895.21 213.64 1905.57 260.168 1907.13 307.305L1905.72 307.353C1902.4 206.974 1860.2 116.446 1792.84 65.1934C1721.31 10.7644 1619.77 4.77473 1551.39 50.9562C1483.67 96.7035 1455.55 183.359 1465.44 315.874C1466.22 326.356 1467.82 339.308 1469.51 353.021C1474.48 393.396 1480.67 443.645 1474.14 486.106C1470.59 509.233 1463.45 527.819 1452.92 541.352C1447 548.96 1439.86 555.178 1431.7 559.829C1423.02 564.778 1412.93 568.101 1401.7 569.708C1397.11 570.365 1392.44 570.695 1387.7 570.695C1370.4 570.695 1351.98 566.323 1331.79 557.467C1309.05 547.488 1287.1 533.09 1269.47 521.523C1225.24 492.507 1183.05 459.855 1144.07 424.469C1110.29 393.81 1080.5 357.979 1051.69 323.329C1018.66 283.614 984.514 242.545 944.386 209.378C896.302 169.634 841.21 154.526 780.639 164.479C658.114 184.61 531.901 307.55 466.481 413.257C446.391 445.719 431.274 480.649 416.655 514.428C411.299 526.802 405.763 539.599 400.027 552.179C388.394 577.691 376.905 595.959 363.87 609.663C355.734 618.215 346.907 624.957 337.634 629.701C327.323 634.975 316.094 637.974 304.254 638.614C302.342 638.712 300.416 638.763 298.487 638.763Z" fill="#A1A1A1"/>
</g>
</svg>
