<svg width="211" height="71" viewBox="0 0 211 71" fill="none" xmlns="http://www.w3.org/2000/svg">
<path d="M90.2978 37.3328C90.2978 47.377 82.4805 54.7784 72.8869 54.7784C63.2934 54.7784 55.4761 47.377 55.4761 37.3328C55.4761 27.2178 63.2934 19.8872 72.8869 19.8872C82.4805 19.8872 90.2978 27.2178 90.2978 37.3328ZM82.6761 37.3328C82.6761 31.0562 78.1454 26.7616 72.8869 26.7616C67.6285 26.7616 63.0977 31.0562 63.0977 37.3328C63.0977 43.5465 67.6285 47.904 72.8869 47.904C78.1454 47.904 82.6761 43.5386 82.6761 37.3328Z" fill="#EA4335"/>
<path d="M127.858 37.3328C127.858 47.377 120.041 54.7784 110.447 54.7784C100.853 54.7784 93.0361 47.377 93.0361 37.3328C93.0361 27.2257 100.853 19.8872 110.447 19.8872C120.041 19.8872 127.858 27.2178 127.858 37.3328ZM120.236 37.3328C120.236 31.0562 115.705 26.7616 110.447 26.7616C105.189 26.7616 100.658 31.0562 100.658 37.3328C100.658 43.5465 105.189 47.904 110.447 47.904C115.705 47.904 120.236 43.5386 120.236 37.3328Z" fill="#FBBC05"/>
<path d="M163.853 20.9412V52.2614C163.853 65.145 156.294 70.407 147.358 70.407C138.946 70.407 133.883 64.7517 131.974 60.1269L138.61 57.3503C139.791 60.1898 142.686 63.5405 147.35 63.5405C153.07 63.5405 156.615 59.9931 156.615 53.3154V50.8063H156.349C154.643 52.9221 151.357 54.7705 147.209 54.7705C138.531 54.7705 130.581 47.1725 130.581 37.3957C130.581 27.5482 138.531 19.8872 147.209 19.8872C151.349 19.8872 154.635 21.7356 156.349 23.7885H156.615V20.949H163.853V20.9412ZM157.155 37.3957C157.155 31.2528 153.078 26.7616 147.89 26.7616C142.632 26.7616 138.226 31.2528 138.226 37.3957C138.226 43.4757 142.632 47.9039 147.89 47.9039C153.078 47.9039 157.155 43.4757 157.155 37.3957Z" fill="#4285F4"/>
<path d="M175.787 2.58276V53.7082H168.353V2.58276H175.787Z" fill="#34A853"/>
<path d="M204.755 43.0744L210.671 47.0385C208.762 49.878 204.161 54.7703 196.21 54.7703C186.351 54.7703 178.987 47.1093 178.987 37.3247C178.987 26.9502 186.413 19.8792 195.357 19.8792C204.364 19.8792 208.77 27.0839 210.21 30.9773L211 32.9594L187.798 42.6182C189.575 46.1183 192.337 47.9037 196.21 47.9037C200.092 47.9037 202.783 45.9846 204.755 43.0744ZM186.546 36.7977L202.056 30.3245C201.203 28.1457 198.636 26.6277 195.616 26.6277C191.742 26.6277 186.351 30.0649 186.546 36.7977Z" fill="#EA4335"/>
<path d="M27.3368 32.7942V25.3928H52.1502C52.3928 26.6827 52.518 28.2086 52.518 29.8604C52.518 35.4134 51.0077 42.2799 46.1405 47.1722C41.4063 52.1274 35.3575 54.7702 27.3446 54.7702C12.4925 54.7702 0.00366211 42.6103 0.00366211 27.6816C0.00366211 12.753 12.4925 0.593018 27.3446 0.593018C35.561 0.593018 41.4141 3.83358 45.8119 8.05733L40.616 13.28C37.4625 10.3068 33.19 7.99441 27.3368 7.99441C16.4912 7.99441 8.00875 16.7801 8.00875 27.6816C8.00875 38.5831 16.4912 47.3689 27.3368 47.3689C34.3715 47.3689 38.378 44.5294 40.9446 41.9496C43.0261 39.8573 44.3955 36.8685 44.9354 32.7863L27.3368 32.7942Z" fill="#4285F4"/>
</svg>
