<svg width="288" height="63" viewBox="0 0 288 63" fill="none" xmlns="http://www.w3.org/2000/svg">
<g clip-path="url(#clip0_9_10313)">
<path d="M287.313 28.5491V23.4444H281.046V15.5085L280.835 15.5742L274.947 17.396L274.831 17.4316V23.4447H265.539V20.0949C265.539 18.5351 265.884 17.3415 266.564 16.5455C267.239 15.759 268.204 15.3591 269.435 15.3591C270.32 15.3591 271.237 15.57 272.159 15.9859L272.39 16.0903V10.7144L272.282 10.6739C271.421 10.3611 270.251 10.2036 268.8 10.2036C266.972 10.2036 265.311 10.606 263.862 11.4034C262.413 12.202 261.273 13.342 260.474 14.7914C259.678 16.2391 259.274 17.9112 259.274 19.7616V23.4444H254.91V28.5491H259.274V50.0543H265.539V28.5491H274.831V42.2153C274.831 47.8436 277.456 50.6959 282.633 50.6959C283.484 50.6959 284.379 50.5951 285.294 50.3977C286.224 50.1949 286.858 49.9925 287.231 49.7763L287.314 49.7269V44.575L287.059 44.7454C286.719 44.9746 286.295 45.1618 285.799 45.3011C285.3 45.4429 284.884 45.5139 284.561 45.5139C283.348 45.5139 282.451 45.1835 281.895 44.5312C281.331 43.873 281.046 42.7221 281.046 41.1121V28.5491H287.313ZM240.918 45.5148C238.644 45.5148 236.851 44.7522 235.588 43.25C234.316 41.7402 233.672 39.5877 233.672 36.8528C233.672 34.0312 234.316 31.8228 235.588 30.2863C236.852 28.76 238.628 27.9853 240.867 27.9853C243.039 27.9853 244.769 28.7251 246.008 30.1855C247.253 31.6535 247.884 33.8442 247.884 36.6986C247.884 39.5882 247.29 41.8078 246.119 43.2926C244.955 44.7662 243.206 45.5148 240.918 45.5148ZM241.197 22.8034C236.858 22.8034 233.412 24.0891 230.955 26.6249C228.5 29.1609 227.255 32.6705 227.255 37.0569C227.255 41.2232 228.47 44.5744 230.867 47.0159C233.264 49.4582 236.526 50.6953 240.562 50.6953C244.768 50.6953 248.145 49.3916 250.601 46.8207C253.057 44.2526 254.301 40.7762 254.301 36.4923C254.301 32.2608 253.133 28.8846 250.83 26.4595C248.525 24.0332 245.284 22.8034 241.197 22.8034ZM217.153 22.8034C214.202 22.8034 211.761 23.5668 209.896 25.0721C208.02 26.5864 207.068 28.5724 207.068 30.9757C207.068 32.2249 207.273 33.3345 207.678 34.2757C208.084 35.22 208.714 36.0514 209.55 36.7492C210.38 37.4413 211.661 38.1663 213.358 38.9039C214.785 39.4978 215.849 40.0001 216.525 40.396C217.186 40.7841 217.655 41.1741 217.92 41.554C218.177 41.9258 218.308 42.4346 218.308 43.0624C218.308 44.8502 216.984 45.72 214.26 45.72C213.25 45.72 212.098 45.5066 210.835 45.086C209.582 44.6718 208.399 44.0651 207.328 43.2873L207.067 43.0986V49.1993L207.163 49.2442C208.049 49.6581 209.167 50.0071 210.484 50.2817C211.799 50.5566 212.994 50.6964 214.032 50.6964C217.234 50.6964 219.813 49.9293 221.695 48.415C223.589 46.8904 224.548 44.8575 224.548 42.3711C224.548 40.5774 224.032 39.0393 223.013 37.7988C222.002 36.5684 220.247 35.4388 217.798 34.4403C215.847 33.6485 214.598 32.9911 214.082 32.4866C213.585 31.9991 213.333 31.3098 213.333 30.4368C213.333 29.663 213.644 29.043 214.284 28.5409C214.928 28.0364 215.825 27.7797 216.95 27.7797C217.994 27.7797 219.062 27.9465 220.124 28.2734C221.186 28.6002 222.118 29.0379 222.896 29.5734L223.152 29.7503V23.9633L223.054 23.9206C222.336 23.6092 221.389 23.3427 220.239 23.1265C219.095 22.9117 218.056 22.8034 217.153 22.8034ZM190.735 45.5148C188.461 45.5148 186.668 44.7522 185.404 43.25C184.133 41.7402 183.49 39.5882 183.49 36.8528C183.49 34.0312 184.134 31.8228 185.406 30.2863C186.669 28.76 188.444 27.9853 190.684 27.9853C192.856 27.9853 194.585 28.7251 195.824 30.1855C197.07 31.6535 197.701 33.8442 197.701 36.6986C197.701 39.5882 197.107 41.8078 195.935 43.2926C194.772 44.7662 193.023 45.5148 190.735 45.5148ZM191.014 22.8034C186.674 22.8034 183.228 24.0891 180.772 26.6249C178.317 29.1609 177.071 32.6705 177.071 37.0569C177.071 41.2249 178.287 44.5744 180.684 47.0159C183.081 49.4582 186.343 50.6953 190.379 50.6953C194.584 50.6953 197.962 49.3916 200.418 46.8207C202.873 44.2526 204.118 40.7762 204.118 36.4923C204.118 32.2608 202.95 28.8846 200.646 26.4595C198.341 24.0332 195.1 22.8034 191.014 22.8034ZM167.561 28.0527V23.4444H161.372V50.0537H167.561V36.442C167.561 34.1275 168.08 32.226 169.104 30.7898C170.114 29.3707 171.461 28.6516 173.106 28.6516C173.664 28.6516 174.289 28.7445 174.967 28.9284C175.638 29.1112 176.124 29.3097 176.41 29.5187L176.67 29.7093V23.3989L176.57 23.3554C175.994 23.1077 175.178 22.9828 174.147 22.9828C172.591 22.9828 171.2 23.4882 170.008 24.4833C168.961 25.358 168.205 26.5572 167.627 28.0527H167.561ZM150.288 22.8034C147.449 22.8034 144.917 23.4191 142.762 24.633C140.604 25.8496 138.935 27.5866 137.799 29.7952C136.668 31.9986 136.094 34.5722 136.094 37.4424C136.094 39.9566 136.65 42.2638 137.751 44.2973C138.851 46.3341 140.41 47.9276 142.382 49.0328C144.351 50.1365 146.628 50.6961 149.148 50.6961C152.089 50.6961 154.6 50.1014 156.614 48.9286L156.695 48.8814V43.1469L156.435 43.339C155.523 44.0109 154.504 44.5472 153.407 44.9336C152.313 45.3196 151.316 45.5148 150.441 45.5148C148.013 45.5148 146.064 44.7463 144.648 43.2311C143.23 41.7141 142.511 39.5837 142.511 36.9031C142.511 34.2055 143.261 32.0205 144.739 30.4082C146.212 28.8007 148.165 27.9853 150.544 27.9853C152.578 27.9853 154.56 28.6819 156.436 30.0578L156.695 30.2484V24.2062L156.611 24.1584C155.906 23.7589 154.943 23.4289 153.748 23.1788C152.558 22.9291 151.394 22.8034 150.288 22.8034ZM131.831 23.4447H125.642V50.0537H131.831V23.4447ZM128.8 12.109C127.782 12.109 126.893 12.4597 126.163 13.1547C125.43 13.8516 125.059 14.7291 125.059 15.7646C125.059 16.7838 125.426 17.6453 126.152 18.3237C126.873 19.0001 127.764 19.3429 128.8 19.3429C129.836 19.3429 130.731 19.0001 131.461 18.3248C132.195 17.6453 132.568 16.7841 132.568 15.7646C132.568 14.7653 132.205 13.8968 131.491 13.1828C130.777 12.4701 129.872 12.109 128.8 12.109ZM113.358 21.4814V50.0537H119.674V12.9236H110.933L99.8213 40.5027L89.0384 12.9236H79.9407V50.0534H85.8761V21.4786H86.0799L97.4664 50.0537H101.946L113.155 21.4814H113.358Z" fill="#706D6E"/>
<path d="M29.4283 29.9621H0.313721V0.516602H29.4283V29.9621Z" fill="#F1511B"/>
<path d="M61.574 29.9614H32.46V0.515869H61.574V29.9614Z" fill="#80CC28"/>
<path d="M29.4275 62.4841H0.313721V33.0388H29.4275V62.4841Z" fill="#00ADEF"/>
<path d="M61.574 62.4841H32.46V33.0388H61.574V62.4841Z" fill="#FBBC09"/>
</g>
<defs>
<clipPath id="clip0_9_10313">
<rect width="287" height="62" fill="white" transform="translate(0.313721 0.5)"/>
</clipPath>
</defs>
</svg>
