<svg width="281" height="71" viewBox="0 0 281 71" fill="none" xmlns="http://www.w3.org/2000/svg">
<g clip-path="url(#clip0_9_10320)">
<path d="M89.8384 55.626L93.3243 47.5757C97.0914 50.3709 102.095 51.8245 107.043 51.8245C110.698 51.8245 113.003 50.4268 113.003 48.3024C112.947 42.3764 91.1316 47.0166 90.9629 32.1457C90.9067 24.5985 97.6536 18.7843 107.212 18.7843C112.891 18.7843 118.569 20.182 122.617 23.3686L119.356 31.5867C115.646 29.2386 111.035 27.5615 106.65 27.5615C103.67 27.5615 101.702 28.9591 101.702 30.7481C101.758 36.5623 123.742 33.3757 123.967 47.5757C123.967 55.2906 117.389 60.7134 107.943 60.7134C101.027 60.7134 94.6737 59.0922 89.8384 55.626ZM223.597 44.6686C221.854 47.6875 218.593 49.756 214.826 49.756C209.26 49.756 204.762 45.2835 204.762 39.7489C204.762 34.2142 209.26 29.7418 214.826 29.7418C218.593 29.7418 221.854 31.8103 223.597 34.8292L233.212 29.5182C229.613 23.1449 222.698 18.7843 214.826 18.7843C203.188 18.7843 193.742 28.1764 193.742 39.7489C193.742 51.3213 203.188 60.7134 214.826 60.7134C222.754 60.7134 229.613 56.4087 233.212 49.9796L223.597 44.6686ZM128.802 1.39771H140.834V59.9308H128.802V1.39771ZM237.935 1.39771V59.9308H249.967V42.3764L264.248 59.9308H279.654L261.493 39.078L278.304 19.6229H263.573L249.967 35.7796V1.39771H237.935ZM176.593 44.7804C174.85 47.6316 171.252 49.756 167.204 49.756C161.638 49.756 157.14 45.2835 157.14 39.7489C157.14 34.2142 161.638 29.7418 167.204 29.7418C171.252 29.7418 174.85 31.978 176.593 34.8851V44.7804ZM176.593 19.6229V24.3749C174.626 21.0764 169.734 18.7843 164.618 18.7843C154.047 18.7843 145.726 28.0646 145.726 39.693C145.726 51.3213 154.047 60.7134 164.618 60.7134C169.734 60.7134 174.626 58.4213 176.593 55.1229V59.8749H188.626V19.6229H176.593Z" fill="black"/>
<path d="M15.4532 44.7243C15.4532 48.8054 12.136 52.1038 8.03155 52.1038C3.92713 52.1038 0.609863 48.8054 0.609863 44.7243C0.609863 40.6431 3.92713 37.3447 8.03155 37.3447H15.4532V44.7243ZM19.1641 44.7243C19.1641 40.6431 22.4813 37.3447 26.5858 37.3447C30.6902 37.3447 34.0075 40.6431 34.0075 44.7243V63.1731C34.0075 67.2542 30.6902 70.5526 26.5858 70.5526C22.4813 70.5526 19.1641 67.2542 19.1641 63.1731V44.7243Z" fill="#E01E5A"/>
<path d="M26.5854 15.0945C22.4809 15.0945 19.1637 11.7961 19.1637 7.71498C19.1637 3.63387 22.4809 0.335449 26.5854 0.335449C30.6898 0.335449 34.007 3.63387 34.007 7.71498V15.0945H26.5854ZM26.5854 18.8402C30.6898 18.8402 34.007 22.1386 34.007 26.2197C34.007 30.3008 30.6898 33.5992 26.5854 33.5992H7.97491C3.87049 33.5992 0.553223 30.3008 0.553223 26.2197C0.553223 22.1386 3.87049 18.8402 7.97491 18.8402H26.5854Z" fill="#36C5F0"/>
<path d="M56.3284 26.2197C56.3284 22.1386 59.6456 18.8402 63.7501 18.8402C67.8545 18.8402 71.1717 22.1386 71.1717 26.2197C71.1717 30.3008 67.8545 33.5992 63.7501 33.5992H56.3284V26.2197ZM52.6175 26.2197C52.6175 30.3008 49.3003 33.5992 45.1959 33.5992C41.0914 33.5992 37.7742 30.3008 37.7742 26.2197V7.71498C37.7742 3.63387 41.0914 0.335449 45.1959 0.335449C49.3003 0.335449 52.6175 3.63387 52.6175 7.71498V26.2197Z" fill="#2EB67D"/>
<path d="M45.1959 55.7935C49.3003 55.7935 52.6175 59.092 52.6175 63.1731C52.6175 67.2542 49.3003 70.5526 45.1959 70.5526C41.0914 70.5526 37.7742 67.2542 37.7742 63.1731V55.7935H45.1959ZM45.1959 52.1038C41.0914 52.1038 37.7742 48.8054 37.7742 44.7243C37.7742 40.6431 41.0914 37.3447 45.1959 37.3447H63.8063C67.9107 37.3447 71.228 40.6431 71.228 44.7243C71.228 48.8054 67.9107 52.1038 63.8063 52.1038H45.1959Z" fill="#ECB22E"/>
</g>
<defs>
<clipPath id="clip0_9_10320">
<rect width="280" height="71" fill="white" transform="translate(0.158691)"/>
</clipPath>
</defs>
</svg>
