<svg width="1920" height="640" viewBox="0 0 1920 640" fill="none" xmlns="http://www.w3.org/2000/svg">
<rect width="1921" height="488" transform="translate(0 152)" fill="#043873"/>
<g opacity="0.2">
<path d="M410.672 193.809C412.274 199.787 412.131 207.481 410.02 218.239C404.149 246.863 373.14 282.91 340.336 320.987C322.332 341.939 303.702 363.574 289.206 384.187C261.567 416.021 248.667 460.892 236.148 504.328C227.016 536.062 218.358 566.034 204.488 591.168L204.457 591.219C193.536 610.23 180.979 621.12 166.096 624.506C137.054 631.127 103.419 608.014 64.4752 581.206L60.7287 578.64C31.7484 558.795 -6.46622 534.372 -63.1268 499.366L-67.8009 496.361C-117.137 464.683 -178.543 425.229 -225.4 365.362C-328.276 247.868 -308.43 115.597 -262.542 63.2199C-207.641 6.70731 -137.356 -8.51291 6.20945 4.96996C155.928 19.2554 291.28 103.491 342.51 139.048C360.397 154.426 374.932 163.175 385.544 169.534C398.961 177.637 407.748 182.895 410.672 193.809ZM199.513 588.716C213.081 564.137 221.636 534.45 230.717 503.031C243.37 459.086 256.465 413.603 284.731 381.086C299.216 360.432 317.951 338.683 336.028 317.669C368.341 280.11 398.87 244.622 404.487 217.399C409.675 190.592 402.808 186.454 382.418 174.156C371.638 167.67 356.839 158.776 338.836 143.301C288.177 108.193 153.837 24.5464 5.45369 10.3762C-136.04 -2.93063 -205.098 11.8317 -258.443 66.7661C-302.942 117.61 -321.977 246.697 -221.048 361.959C-174.626 421.212 -113.652 460.394 -64.6853 491.871L-60.022 494.836C-3.30869 529.871 34.9587 554.323 64.0024 574.236L67.7489 576.802C105.595 602.872 138.291 625.334 164.834 619.296C178.101 616.258 189.413 606.26 199.513 588.716Z" fill="#A7CEFC"/>
<path d="M374.828 212.144C377.042 220.409 376.616 229.899 374.931 243.252L374.911 243.516C368.974 269.878 344.621 296.014 318.87 323.643C301.252 342.512 283.093 362.043 268.487 383.589C243.851 415.048 227.659 450.652 211.996 485.039C201.498 508.151 191.561 529.994 179.458 549.966L179.197 550.337C142.424 594.251 116.338 576.814 68.9571 545.213C63.8074 541.776 58.3834 538.155 52.6118 534.412C42.4968 526.715 31.3283 518.612 19.4842 510.002C-33.1809 471.775 -105.301 419.366 -174.587 336.738C-251.721 233.721 -242.2 135.61 -198.578 84.0123C-152.711 31.7267 -81.589 28.1949 41.9659 40.0296C167.855 55.5395 263.862 119.697 315.433 154.174L321.184 158.009C356.185 184.541 370.527 196.094 374.828 212.144ZM369.356 242.596C373.898 206.157 369.214 201.434 317.805 162.355L312.212 158.607C261.032 124.412 165.742 60.7502 41.2834 45.3732C-80.2 33.7145 -150.041 36.9892 -194.217 87.3595C-236.441 137.293 -245.368 232.75 -170.046 333.371C-101.279 415.407 -29.4542 467.551 22.958 505.673C34.8022 514.283 45.9707 522.386 56.0222 530.015C61.6356 533.671 67.0596 537.292 72.2512 540.718C119.685 572.347 141.381 586.833 174.743 547.144C186.617 527.491 196.429 505.853 206.854 482.976C222.61 448.263 238.959 412.402 263.897 380.562C278.627 358.81 296.965 339.103 314.718 320.068C339.874 293.071 363.663 267.517 369.356 242.596Z" fill="#A7CEFC"/>
<path d="M344.99 227.708C347.817 238.261 346.495 249.108 343.048 263.106C335.666 286.931 313.484 310.421 290.048 335.279C276.096 350.027 261.705 365.323 249.149 381.761C228.871 405.472 213.051 431.386 197.71 456.397C185.126 476.929 173.272 496.318 160.054 512.633L159.845 512.861C123.757 548.42 97.2159 528.782 49.012 493.101L48.4524 492.692L40.2033 485.914C-6.63106 447.287 -70.788 394.378 -128.584 313.832C-192.224 217.521 -174.295 140.552 -139.674 103.881C-102.756 64.7018 -41.569 55.4887 71.5148 72.0645C150.692 84.9957 228.131 119.982 301.671 176.01C328.384 198.139 340.947 212.621 344.99 227.708ZM155.693 509.286C168.629 493.262 180.4 474.066 192.817 453.752C208.241 428.546 224.238 402.456 244.684 378.528C257.291 361.947 271.839 346.566 285.896 331.704C308.925 307.342 330.647 284.319 337.617 261.809C345.539 229.926 341.536 216.161 298.028 180.212C225.238 124.799 148.663 90.184 70.4749 77.4178C-40.4523 61.1673 -100.161 69.8552 -135.606 107.479C-171.522 145.529 -181.859 223.129 -123.946 310.826C-66.5954 390.717 -2.77636 443.372 43.8675 481.793L52.4546 488.825C100.996 524.759 123.219 541.21 155.693 509.286Z" fill="#A7CEFC"/>
<path d="M317.12 239.217C320.281 251.014 319.009 263.225 314.01 277.81L313.989 277.901C305.631 300.096 284.552 321.828 262.283 344.826C251.952 355.464 241.319 366.484 231.446 377.989C216.69 393.769 203.599 410.394 190.989 426.459C175.49 446.18 160.835 464.858 145.447 478.615C112.085 504.369 86.292 486.681 47.6736 454.539C10.2856 420.777 -44.3182 367.76 -87.2927 296.359C-122.994 226.751 -125.06 168 -93.1969 130.777C-58.881 90.618 9.73848 79.9296 95.0842 101.443C194.094 121.403 263.718 176.245 282.671 192.583C302.136 210.161 313.142 224.371 317.12 239.217ZM308.682 276.227C317.977 248.965 315.888 230.086 278.807 196.629C260.149 180.555 191.434 126.417 93.6656 106.726C10.4462 85.7607 -56.065 95.7553 -88.8673 134.176C-119.217 169.66 -116.859 226.312 -82.2739 293.767C-39.7243 364.422 14.4674 417.076 51.5488 450.533C91.2765 483.625 113.164 496.812 141.902 474.619C156.736 461.312 171.224 442.851 186.588 423.295C199.302 407.115 212.413 390.4 227.284 374.545C237.147 363 247.906 351.946 258.267 341.257C280.055 318.646 300.706 297.33 308.682 276.227Z" fill="#A7CEFC"/>
<path d="M291.333 248.407C294.688 260.926 293.282 273.645 287.504 288.009L287.296 288.409C251.085 347.181 154.57 431.057 135.613 447.276L135.152 447.571C106.18 464.021 82.9771 450.628 50.3072 420.203C20.8515 391.197 -20.4116 343.98 -49.951 283.602C-75.3234 227.526 -74.0847 180.102 -46.4769 149.998C-15.7991 116.576 42.3272 108.699 113 128.339C180.34 144.27 235.205 179.628 264.065 207.418C278.867 222.03 287.774 235.125 291.333 248.407ZM282.363 285.946C293.306 258.457 287.246 238.191 260.021 211.296C231.7 184.007 177.774 149.301 111.434 133.575C43.8248 114.792 -13.5998 122.266 -42.2937 153.521C-68.3772 181.927 -69.3023 227.331 -44.815 281.279C-15.6058 340.929 25.2441 387.611 54.3513 416.324C85.5945 445.454 106.257 457.593 132.193 443.074C186.649 396.486 254.623 330.837 282.363 285.946Z" fill="#A7CEFC"/>
<path d="M267.611 257.085C271.202 270.487 269.651 283.332 262.981 294.537C236.764 339.235 171.396 395.972 129.083 418.878C119.105 423.444 108.228 423.649 96.7059 419.597C61.1905 407.095 18.9831 353.164 -16.1898 275.287C-33.1592 230.592 -29.4552 192.872 -5.76194 168.977C21.0864 141.914 69.1673 136.17 126.098 153.213C198.429 175.849 250.452 212.183 265.364 250.376C266.281 252.625 267.02 254.878 267.611 257.085ZM-16.4938 256.187C-15.0101 261.725 -13.1788 267.384 -10.958 273.154C23.5545 349.574 64.5891 402.486 98.7455 414.449C108.878 418.013 118.241 417.87 126.616 414.034C168.059 391.576 232.382 335.808 258.13 291.88C265.008 280.275 265.703 266.585 260.131 252.338C245.795 215.624 195.03 180.458 124.321 158.334C70.328 142.181 23.2114 147.495 -1.72514 172.626C-20.8113 191.889 -25.8798 221.158 -16.4938 256.187Z" fill="#A7CEFC"/>
<path d="M244.193 262.027C247.526 274.466 246.264 286.544 240.411 297.273C219.663 335.517 166.067 380.111 125.741 392.637L125.657 392.659C88.1452 402.925 41.2968 351.486 14.3444 270.373C4.05544 235.5 9.33382 206.175 29.3076 187.706C52.1974 166.521 90.7239 162.39 135.045 176.361C189.036 193.848 228.919 223.156 241.764 254.808C242.735 257.257 243.559 259.659 244.193 262.027ZM124.176 387.465C163.284 375.266 215.301 331.998 235.436 294.822C241.621 283.488 241.984 270.403 236.522 256.9C224.243 226.689 185.606 198.508 133.142 181.516C90.8849 168.196 54.3947 171.867 33.0937 191.594C14.7506 208.594 9.93329 235.946 19.6632 268.733C45.2661 345.648 90.2205 396.736 124.176 387.465Z" fill="#A7CEFC"/>
<path d="M221.84 266.08C224.754 276.954 223.872 287.598 219.127 297.256C202.609 331.141 159.492 363.638 124.931 368.297C91.6167 372.235 55.2084 328.362 42.0265 268.589C36.634 242.252 42.6812 220.161 58.9938 206.329C77.6906 190.481 107.343 187.482 140.304 198.175C178.931 210.876 208.401 233.385 219.145 258.373C220.285 260.949 221.152 263.512 221.84 266.08ZM49.7782 276.532C63.8196 328.936 95.5644 366.317 124.342 362.907C156.603 358.563 198.537 326.856 214.079 295.039C219.187 284.553 219.147 272.651 213.966 260.535C203.808 236.894 175.544 215.525 138.39 203.289C107.398 193.23 79.7931 195.81 62.6334 210.342C47.931 222.797 42.5667 243.071 47.5055 267.379C48.2387 270.451 48.9718 273.523 49.7782 276.532Z" fill="#A7CEFC"/>
<path d="M200.38 269.596C202.724 278.343 202.208 286.996 198.83 295.04C187.09 322.915 154.508 345.536 126.193 345.468C98.1401 345.2 72.3358 311.689 67.4457 269.262C65.4089 250.412 71.2522 234.612 83.9103 224.769C98.2421 213.618 119.628 211.5 142.585 218.939C168.817 227.521 188.828 243.103 197.453 261.693C198.688 264.286 199.67 266.947 200.38 269.596ZM126.36 340.047C152.069 340.126 182.881 318.624 193.637 293.12C197.461 284.054 197.012 273.982 192.348 263.964C184.416 246.952 165.113 231.997 140.703 224.002C119.62 217.179 100.219 218.98 87.4035 228.908C76.304 237.516 71.2178 251.608 73.0537 268.534C77.525 307.718 101.46 339.795 126.36 340.047Z" fill="#A7CEFC"/>
<path d="M179.556 272.809C181.18 278.868 181.112 285.165 178.963 291.245C171.938 311.534 149.408 326.172 128.784 323.914C108.233 321.594 91.2242 298.241 90.8864 271.796C90.7184 259.585 95.5755 249.338 104.481 242.952C114.298 235.935 128.12 234.468 142.357 238.91C161.911 245.067 175.664 258.284 179.556 272.809ZM173.677 289.651C179.741 272.157 164.904 251.705 140.538 244.042C128.07 240.158 116.096 241.302 107.797 247.268C100.398 252.562 96.3721 261.209 96.5083 271.623C96.8305 295.491 111.65 316.55 129.551 318.548C147.672 320.531 167.458 307.574 173.677 289.651Z" fill="#A7CEFC"/>
<path d="M159.208 276.283C160.09 279.573 160.152 282.997 159.258 286.376C156.196 297.948 144.06 305.543 132.16 303.27C120.406 301.044 111.724 288.619 112.833 275.635C113.363 269.386 116.359 264.111 121.331 260.843C126.565 257.377 133.528 256.5 140.403 258.485C150.121 261.343 157.068 268.298 159.208 276.283ZM119.145 283.577C121.091 290.84 126.581 296.723 133.41 298.032C142.365 299.719 151.537 293.993 153.817 285.21C156.151 276.457 149.334 266.801 138.659 263.727C133.342 262.184 128.321 262.755 124.427 265.347C120.91 267.665 118.778 271.462 118.385 276.04C118.222 278.621 118.5 281.17 119.145 283.577Z" fill="#A7CEFC"/>
</g>
</svg>
